<svg width="55" height="76" viewBox="0 0 55 76" fill="none" xmlns="http://www.w3.org/2000/svg">
<g clip-path="url(#clip0_708_8)">
<path d="M27.4665 75.808L5.08361 69.7192L0.0955811 14.8981H54.9044L49.9112 69.7108L27.4665 75.808Z" fill="#264DE4"/>
<path d="M45.6365 66.2204L49.9033 19.3804H27.5V71.1474L45.6365 66.2204Z" fill="#2965F1"/>
<path d="M11.5305 39.7128L12.1453 46.4364H27.5V39.7128H11.5305ZM10.2947 26.1042L10.9184 32.8278H27.5V26.1042H10.2947ZM27.5 57.1747L27.4699 57.1825L19.8284 55.1606L19.3398 49.7983H12.4519L13.4131 60.3553L27.4684 64.1785L27.5 64.1701V57.1747Z" fill="#EBEBEB"/>
<path d="M12.9946 0H21.3048V3.40547H16.4699V6.81095H21.3052V10.2162H12.9946V0ZM22.967 0H31.2774V2.96126H26.4423V3.55347H31.2774V10.3644H22.9672V7.25474H27.8023V6.66253H22.9668L22.967 0ZM32.9396 0H41.25V2.96126H36.415V3.55347H41.25V10.3644H32.9396V7.25474H37.7747V6.66253H32.9399V0H32.9396Z" fill="black"/>
<path d="M43.4257 39.7128L44.6643 26.1042H27.4763V32.8278H37.1447L36.5204 39.7128H27.4763V46.4364H35.9255L35.1289 55.1564L27.4761 57.1804V64.1753L41.5426 60.3553L41.6457 59.2193L43.2583 41.5183L43.4257 39.7128Z" fill="white"/>
</g>
<defs>
<clipPath id="clip0_708_8">
<rect width="55" height="76" fill="white"/>
</clipPath>
</defs>
</svg>
