<svg width="49" height="76" viewBox="0 0 49 76" fill="none" xmlns="http://www.w3.org/2000/svg">
<g clip-path="url(#clip0_709_68)">
<path d="M12.25 76C19.012 76 24.5 70.3254 24.5 63.3334V50.6667H12.25C5.488 50.6667 0 56.3414 0 63.3334C0 70.3254 5.488 76 12.25 76Z" fill="#0ACF83"/>
<path d="M0 38C0 31.008 5.488 25.3333 12.25 25.3333H24.5V50.6666H12.25C5.488 50.6666 0 44.992 0 38Z" fill="#A259FF"/>
<path d="M0 12.6667C0 5.67467 5.488 0 12.25 0H24.5V25.3333H12.25C5.488 25.3333 0 19.6587 0 12.6667Z" fill="#F24E1E"/>
<path d="M24.5 0H36.75C43.512 0 49 5.67467 49 12.6667C49 19.6587 43.512 25.3333 36.75 25.3333H24.5V0Z" fill="#FF7262"/>
<path d="M49 38C49 44.992 43.512 50.6666 36.75 50.6666C29.988 50.6666 24.5 44.992 24.5 38C24.5 31.008 29.988 25.3333 36.75 25.3333C43.512 25.3333 49 31.008 49 38Z" fill="#1ABCFE"/>
</g>
<defs>
<clipPath id="clip0_709_68">
<rect width="49" height="76" fill="white"/>
</clipPath>
</defs>
</svg>
