<svg width="112" height="57" viewBox="0 0 112 57" fill="none" xmlns="http://www.w3.org/2000/svg">
<path d="M58.8827 18.8446C56.7422 18.8446 55.1481 20.1011 55.1481 23.1255C55.1481 25.404 56.1987 26.9862 58.7672 26.9862C60.9444 26.9862 62.4233 25.452 62.4233 23.0308C62.4233 20.2872 61.1001 18.8446 58.8827 18.8446ZM54.6032 40.1993C54.0964 40.9423 53.5916 41.7325 53.5916 42.6639C53.5916 44.5236 55.5749 45.0833 58.2995 45.0833C60.5559 45.0833 63.6299 44.894 63.6299 42.3854C63.6299 40.8943 62.151 40.8024 60.2824 40.6625L54.6032 40.1993ZM66.1196 18.9849C66.8187 20.0549 67.5591 21.5443 67.5591 23.6838C67.5591 28.8472 64.1742 31.8706 59.2728 31.8706C58.0264 31.8706 56.8982 31.685 56.1987 31.4527L54.9141 33.9174L58.7267 34.1963C65.4584 34.7093 69.4255 34.9425 69.4255 41.127C69.4255 46.4779 65.497 49.5 58.7267 49.5C51.6847 49.5 49 47.36 49 43.6854C49 41.5921 49.7783 40.4777 51.1401 38.9399C49.8559 38.2911 49.4283 37.1287 49.4283 35.8717C49.4283 34.8474 49.8559 33.9178 50.5573 33.033C51.2572 32.1505 52.0351 31.2657 52.969 30.2423C51.0629 29.1257 49.6226 26.7068 49.6226 23.2636C49.6226 17.9149 52.58 14.2413 58.5316 14.2413C60.2052 14.2413 61.2171 14.4251 62.112 14.7063H69.6997V18.6589L66.1196 18.9849ZM76.5446 10.5315C74.3265 10.5315 73.0426 8.9951 73.0426 6.34251C73.0426 3.69358 74.3261 2.25 76.5446 2.25C78.801 2.25 80.0853 3.69358 80.0853 6.34251C80.0853 8.9951 78.8014 10.5315 76.5446 10.5315ZM71.5247 38.4873V34.8141L73.5096 34.4894C74.0545 34.3957 74.1318 34.2567 74.1318 33.5575V19.8807C74.1318 19.3704 74.0155 19.043 73.6251 18.9049L71.5247 18.0201L71.9523 14.2532H80.0069V33.5575C80.0069 34.3028 80.0444 34.3957 80.6299 34.4899L82.614 34.8145V38.4873H71.5247ZM98 36.6838C96.3264 37.6601 93.8754 38.544 91.6568 38.544C87.027 38.544 85.2769 36.3134 85.2769 31.054V18.8674C85.2769 18.5885 85.2769 18.4024 84.9645 18.4024H82.2415V14.261C85.6662 13.7945 87.027 11.7478 87.4549 6.67723H91.1516V13.2847C91.1516 13.6094 91.1516 13.7497 91.4633 13.7497H96.9487V18.4015H91.1516V29.5189C91.1516 32.2634 91.697 33.3325 93.797 33.3325C94.8877 33.3325 96.0147 33.0079 96.9483 32.589L98 36.6838Z" fill="black"/>
<path d="M41.9606 26.6293L24.8453 8.29241C24.6109 8.04119 24.3326 7.84191 24.0263 7.70594C23.72 7.56998 23.3917 7.5 23.0602 7.5C22.7287 7.5 22.4004 7.56998 22.0941 7.70594C21.7878 7.84191 21.5095 8.04119 21.2751 8.29241L17.7212 12.1007L22.2296 16.9308C22.7595 16.7377 23.3293 16.7075 23.8745 16.8436C24.4196 16.9797 24.9183 17.2766 25.3141 17.7008C25.7119 18.1276 25.9897 18.6657 26.1157 19.2537C26.2416 19.8416 26.2107 20.4557 26.0264 21.0257L30.3707 25.6812C31.4219 25.2933 32.6351 25.5444 33.4743 26.4452C33.7534 26.744 33.9747 27.0988 34.1257 27.4893C34.2768 27.8797 34.3545 28.2983 34.3545 28.7209C34.3545 29.1436 34.2768 29.5621 34.1257 29.9526C33.9747 30.3431 33.7534 30.6979 33.4743 30.9966C32.9834 31.5231 32.3374 31.8511 31.6462 31.9246C30.955 31.9982 30.2613 31.8128 29.6833 31.4001C29.1054 30.9874 28.6787 30.3728 28.4761 29.6609C28.2734 28.9491 28.3073 28.184 28.5718 27.4959L24.52 23.1546L24.5197 34.5794C24.8134 34.735 25.0817 34.9406 25.3141 35.1881C25.5931 35.487 25.8144 35.8418 25.9654 36.2324C26.1164 36.6229 26.1941 37.0415 26.1941 37.4642C26.1941 37.8869 26.1164 38.3055 25.9654 38.6961C25.8144 39.0866 25.5931 39.4414 25.3141 39.7403C24.1403 40.9979 22.238 40.9979 21.0661 39.7403C20.716 39.3655 20.4578 38.9037 20.3144 38.3962C20.171 37.8886 20.1469 37.351 20.2441 36.831C20.3414 36.311 20.5571 35.8249 20.8721 35.4158C21.187 35.0067 21.5914 34.6873 22.0493 34.486V22.9547C21.6809 22.7935 21.3466 22.5546 21.0661 22.2522C20.1772 21.3009 19.9634 19.9033 20.4189 18.7336L15.9749 13.9713L4.23966 26.5442C4.00516 26.7954 3.81914 27.0937 3.69223 27.422C3.56532 27.7502 3.5 28.1021 3.5 28.4574C3.5 28.8127 3.56532 29.1645 3.69223 29.4928C3.81914 29.8211 4.00516 30.1194 4.23966 30.3706L21.355 48.7079C21.8285 49.2151 22.4706 49.5 23.1401 49.5C23.8096 49.5 24.4517 49.2151 24.9251 48.7079L41.9606 30.4561C42.434 29.9486 42.7 29.2603 42.7 28.5427C42.7 27.8251 42.434 27.1369 41.9606 26.6293Z" fill="#DE4C36"/>
</svg>
