<svg width="55" height="76" viewBox="0 0 55 76" fill="none" xmlns="http://www.w3.org/2000/svg">
<g clip-path="url(#clip0_707_2)">
<path d="M54.9044 14.8981L49.9112 69.7108L27.4665 75.808L5.08361 69.7192L0.0955811 14.8981H54.9044Z" fill="#E44D26"/>
<path d="M27.5 71.1474L45.6365 66.2204L49.9033 19.3804H27.5V71.1474Z" fill="#F16529"/>
<path d="M17.7934 32.8278H27.5V26.1042H10.2947L10.4588 27.908L12.1453 46.4364H27.5V39.7128H18.4205L17.7934 32.8278ZM19.3398 49.7983H12.4519L13.4131 60.3553L27.4684 64.1785L27.5 64.1701V57.1747L27.4699 57.1825L19.8284 55.1606L19.3398 49.7983Z" fill="#EBEBEB"/>
<path d="M5.19495 0H8.68186V3.37579H11.8716V0H15.3588V10.2227H11.8719V6.79958H8.68207V10.2227H5.19516L5.19495 0ZM19.944 3.39011H16.8747V0H26.5027V3.39011H23.4315V10.2227H19.9446V3.39011H19.944ZM28.0307 0H31.6665L33.903 3.592L36.1374 0H39.7747V10.2227H36.302V5.15579L33.903 8.79053H33.8429L31.4424 5.15579V10.2227H28.0307V0ZM41.51 0H44.998V6.84379H49.9016V10.2227H41.5098V0H41.51Z" fill="black"/>
<path d="M27.4763 46.4364H35.9255L35.1289 55.1564L27.4761 57.1804V64.1754L41.5426 60.3553L41.6457 59.2193L43.2583 41.5183L43.4257 39.7128H27.4763V46.4364ZM27.4763 32.8113V32.8278H44.05L44.1875 31.3166L44.5004 27.908L44.6643 26.1042H27.4763V32.8113Z" fill="white"/>
</g>
<defs>
<clipPath id="clip0_707_2">
<rect width="55" height="76" fill="white"/>
</clipPath>
</defs>
</svg>
