<svg width="58" height="58" viewBox="0 0 58 58" fill="none" xmlns="http://www.w3.org/2000/svg">
<g filter="url(#filter0_d_683_10)">
<rect x="4.5" y="0.5" width="49" height="49" rx="4.5" stroke="#F5CB86" shape-rendering="crispEdges"/>
</g>
<path d="M21.525 16.025L26.3 30.25C26.4333 30.6 26.5583 31.05 26.675 31.6C26.8083 32.15 26.8583 32.6167 26.825 33L28.45 32.9L28.4 34H22.975L23 33.175C23.6333 33.1583 24.05 33.0167 24.25 32.75C24.45 32.4833 24.5333 32.1667 24.5 31.8C24.4667 31.4333 24.4 31.1 24.3 30.8L23.575 28.45L17.175 28.6L16.175 31.275C16.025 31.675 15.8917 31.9917 15.775 32.225C15.675 32.4583 15.55 32.7167 15.4 33L17.275 32.9L17.225 34H12.65L12.675 33.175C13.0917 33.1583 13.45 33.025 13.75 32.775C14.05 32.5083 14.325 32.1417 14.575 31.675C14.825 31.2083 15.075 30.6667 15.325 30.05L20.975 16.025H21.525ZM20.675 19.5C20.4917 19.9667 20.3083 20.4333 20.125 20.9C19.9417 21.3667 19.7583 21.8333 19.575 22.3L17.575 27.525H23.3L21.675 22.525C21.5083 22.025 21.3417 21.525 21.175 21.025C21.025 20.525 20.8583 20.0167 20.675 19.5ZM29.7965 34L29.8465 33.175C30.4798 33.1417 30.9215 33 31.1715 32.75C31.4215 32.4833 31.5715 32.125 31.6215 31.675C31.6715 31.2083 31.7048 30.6833 31.7215 30.1L32.2965 19.3C32.3298 18.9667 32.3548 18.65 32.3715 18.35C32.4048 18.0333 32.4382 17.75 32.4715 17.5C32.1715 17.5167 31.8715 17.5333 31.5715 17.55C31.2715 17.5667 30.9715 17.5833 30.6715 17.6L30.7215 16.5H36.2465L36.1965 17.325C35.6632 17.3417 35.2632 17.4667 34.9965 17.7C34.7465 17.9167 34.5798 18.2333 34.4965 18.65C34.4132 19.05 34.3548 19.55 34.3215 20.15L34.0965 24.5H36.0465L39.3715 19.575C39.6048 19.2417 39.8798 18.8833 40.1965 18.5C40.5298 18.1 40.8965 17.7583 41.2965 17.475C41.0298 17.4917 40.7632 17.5 40.4965 17.5C40.2465 17.5 39.9882 17.5083 39.7215 17.525L39.7715 16.5H45.1465L45.0965 17.325C44.3965 17.375 43.7632 17.4917 43.1965 17.675C42.6465 17.8583 42.1048 18.1833 41.5715 18.65C41.0548 19.1 40.4882 19.7833 39.8715 20.7L37.2215 24.6C37.6882 24.8833 38.0632 25.2167 38.3465 25.6C38.6298 25.9667 38.9048 26.3417 39.1715 26.725L41.7965 30.45C42.3798 31.2833 42.8632 31.9 43.2465 32.3C43.6465 32.6833 44.0048 32.925 44.3215 33.025C44.6382 33.125 44.9715 33.175 45.3215 33.175L45.2715 34H42.3215C42.1548 34 41.9382 33.8833 41.6715 33.65C41.4215 33.4167 41.1465 33.1167 40.8465 32.75C40.5465 32.3667 40.2382 31.9667 39.9215 31.55L37.1465 27.5C36.8798 27.0833 36.5882 26.6917 36.2715 26.325C35.9548 25.9417 35.6548 25.6583 35.3715 25.475C35.1548 25.475 34.9382 25.4833 34.7215 25.5C34.5048 25.5 34.2798 25.5 34.0465 25.5L33.7465 31.025C33.7298 31.475 33.7048 31.8667 33.6715 32.2C33.6382 32.5167 33.6048 32.7833 33.5715 33C33.8715 32.9833 34.1715 32.9667 34.4715 32.95C34.7715 32.9333 35.0715 32.9167 35.3715 32.9L35.3215 34H29.7965Z" fill="#F5CB86"/>
<defs>
<filter id="filter0_d_683_10" x="0" y="0" width="58" height="58" filterUnits="userSpaceOnUse" color-interpolation-filters="sRGB">
<feFlood flood-opacity="0" result="BackgroundImageFix"/>
<feColorMatrix in="SourceAlpha" type="matrix" values="0 0 0 0 0 0 0 0 0 0 0 0 0 0 0 0 0 0 127 0" result="hardAlpha"/>
<feOffset dy="4"/>
<feGaussianBlur stdDeviation="2"/>
<feComposite in2="hardAlpha" operator="out"/>
<feColorMatrix type="matrix" values="0 0 0 0 0.494118 0 0 0 0 0.34902 0 0 0 0 0.211765 0 0 0 1 0"/>
<feBlend mode="normal" in2="BackgroundImageFix" result="effect1_dropShadow_683_10"/>
<feBlend mode="normal" in="SourceGraphic" in2="effect1_dropShadow_683_10" result="shape"/>
</filter>
</defs>
</svg>
