<svg width="40" height="39" viewBox="0 0 40 39" fill="none" xmlns="http://www.w3.org/2000/svg">
<g clip-path="url(#clip0_702_3)" filter="url(#filter0_d_702_3)">
<path d="M4 15.5C4 11.3891 5.68571 7.44666 8.68629 4.53985C11.6869 1.63303 15.7565 0 20 0C24.2435 0 28.3131 1.63303 31.3137 4.53985C34.3143 7.44666 36 11.3891 36 15.5C36 19.6109 34.3143 23.5533 31.3137 26.4602C28.3131 29.367 24.2435 31 20 31C15.7565 31 11.6869 29.367 8.68629 26.4602C5.68571 23.5533 4 19.6109 4 15.5ZM20 2.90625C16.5522 2.90625 13.2456 4.23309 10.8076 6.59487C8.36964 8.95666 7 12.1599 7 15.5C7 18.8401 8.36964 22.0433 10.8076 24.4051C13.2456 26.7669 16.5522 28.0937 20 28.0938C23.4478 28.0937 26.7544 26.7669 29.1924 24.4051C31.6304 22.0433 33 18.8401 33 15.5C33 12.1599 31.6304 8.95666 29.1924 6.59487C26.7544 4.23309 23.4478 2.90625 20 2.90625ZM17 15.0156C17 14.6302 17.158 14.2606 17.4393 13.9881C17.7206 13.7156 18.1022 13.5625 18.5 13.5625H20.5C20.8978 13.5625 21.2794 13.7156 21.5607 13.9881C21.842 14.2606 22 14.6302 22 15.0156V20.3438H22.5C22.8978 20.3438 23.2794 20.4968 23.5607 20.7694C23.842 21.0419 24 21.4115 24 21.7969C24 22.1823 23.842 22.5519 23.5607 22.8244C23.2794 23.0969 22.8978 23.25 22.5 23.25H18.5C18.1022 23.25 17.7206 23.0969 17.4393 22.8244C17.158 22.5519 17 22.1823 17 21.7969C17 21.4115 17.158 21.0419 17.4393 20.7694C17.7206 20.4968 18.1022 20.3438 18.5 20.3438H19V16.4688H18.5C18.1022 16.4687 17.7206 16.3157 17.4393 16.0431C17.158 15.7706 17 15.401 17 15.0156ZM20 11.625C19.4696 11.625 18.9609 11.4209 18.5858 11.0575C18.2107 10.6942 18 10.2014 18 9.6875C18 9.17364 18.2107 8.68083 18.5858 8.31748C18.9609 7.95413 19.4696 7.75 20 7.75C20.5304 7.75 21.0391 7.95413 21.4142 8.31748C21.7893 8.68083 22 9.17364 22 9.6875C22 10.2014 21.7893 10.6942 21.4142 11.0575C21.0391 11.4209 20.5304 11.625 20 11.625Z" fill="#F5CB86"/>
</g>
<defs>
<filter id="filter0_d_702_3" x="0" y="0" width="40" height="39" filterUnits="userSpaceOnUse" color-interpolation-filters="sRGB">
<feFlood flood-opacity="0" result="BackgroundImageFix"/>
<feColorMatrix in="SourceAlpha" type="matrix" values="0 0 0 0 0 0 0 0 0 0 0 0 0 0 0 0 0 0 127 0" result="hardAlpha"/>
<feOffset dy="4"/>
<feGaussianBlur stdDeviation="2"/>
<feComposite in2="hardAlpha" operator="out"/>
<feColorMatrix type="matrix" values="0 0 0 0 0 0 0 0 0 0 0 0 0 0 0 0 0 0 0.25 0"/>
<feBlend mode="normal" in2="BackgroundImageFix" result="effect1_dropShadow_702_3"/>
<feBlend mode="normal" in="SourceGraphic" in2="effect1_dropShadow_702_3" result="shape"/>
</filter>
<clipPath id="clip0_702_3">
<rect width="32" height="31" fill="white" transform="translate(4)"/>
</clipPath>
</defs>
</svg>
