<svg width="100" height="60" viewBox="0 0 100 60" fill="none" xmlns="http://www.w3.org/2000/svg">
<g clip-path="url(#clip0_709_17)">
<path d="M50 59.8222C77.6142 59.8222 100 46.4306 100 29.9111C100 13.3917 77.6142 0 50 0C22.3858 0 0 13.3917 0 29.9111C0 46.4306 22.3858 59.8222 50 59.8222Z" fill="url(#paint0_radial_709_17)"/>
<path d="M50 57.6C76.5356 57.6 98.0469 45.2033 98.0469 29.9111C98.0469 14.619 76.5356 2.22223 50 2.22223C23.4644 2.22223 1.95312 14.619 1.95312 29.9111C1.95312 45.2033 23.4644 57.6 50 57.6Z" fill="#6181B6"/>
<path d="M59.7265 38.8889L62.1094 24.9333C62.6562 21.7778 62.1875 19.4222 60.7812 17.9555C59.4141 16.5333 57.0703 15.8222 53.6328 15.8222H49.4922L50.664 8.88887C50.7031 8.6222 50.6641 8.35554 50.5078 8.13332C50.3516 7.91109 50.1562 7.8222 49.9219 7.8222H44.2187C43.8281 7.8222 43.5156 8.13332 43.4375 8.53332L40.8984 23.3333C40.664 21.6444 40.1172 20.2222 39.1797 19.0666C37.5 16.8889 34.8828 15.7778 31.3281 15.7778H20.3516C19.9609 15.7778 19.6484 16.0889 19.5703 16.4889L14.4531 46.5333C14.4141 46.8 14.4531 47.0667 14.6094 47.2889C14.7656 47.5111 14.9609 47.6 15.1953 47.6H20.9375C21.3281 47.6 21.6406 47.2889 21.7187 46.8889L22.9687 39.6444H27.2266C29.4531 39.6444 31.3672 39.3778 32.8125 38.8444C34.3359 38.2667 35.7031 37.3333 36.9141 36.0444C37.8906 35.0222 38.7109 33.8667 39.3359 32.6222L38.3203 38.6222C38.2812 38.8889 38.3203 39.1555 38.4766 39.3778C38.6328 39.6 38.8281 39.6889 39.0625 39.6889H44.7656C45.1562 39.6889 45.4687 39.3778 45.5469 38.9778L48.3594 22.5333H52.2656C53.9453 22.5333 54.414 22.8889 54.5703 23.0667C54.6875 23.2 54.9219 23.7333 54.6484 25.3778L52.3828 38.6666C52.3437 38.9333 52.3828 39.2 52.5391 39.4222C52.6953 39.6444 52.8906 39.7333 53.125 39.7333H58.9844C59.3359 39.6 59.6484 39.2889 59.7265 38.8889ZM33.3203 27.3333C32.9687 29.4222 32.3047 30.9333 31.3281 31.7778C30.3516 32.6222 28.75 33.0667 26.6406 33.0667H24.1016L25.9375 22.3111H29.2187C31.6406 22.3111 32.6172 22.8889 33.0078 23.3778C33.5156 24.0889 33.6328 25.4666 33.3203 27.3333ZM84.1016 19.0666C82.4219 16.8889 79.8047 15.7778 76.25 15.7778H65.1953C64.8047 15.7778 64.4922 16.0889 64.414 16.4889L59.2969 46.4889C59.2578 46.7555 59.2969 47.0222 59.4531 47.2444C59.6094 47.4667 59.8047 47.5555 60.039 47.5555H65.7812C66.1719 47.5555 66.4844 47.2444 66.5625 46.8444L67.8125 39.6H72.0703C74.2969 39.6 76.2109 39.3333 77.6562 38.8C79.1797 38.2222 80.5469 37.2889 81.7578 36C82.7734 34.9333 83.6328 33.7333 84.2578 32.4444C84.8828 31.1555 85.3516 29.7333 85.625 28.1778C86.2891 24.3111 85.7812 21.2889 84.1016 19.0666ZM78.125 27.3333C77.7734 29.4222 77.1094 30.9333 76.1328 31.7778C75.1562 32.6222 73.5547 33.0667 71.4453 33.0667H68.9062L70.7422 22.3111H74.0234C76.4453 22.3111 77.4219 22.8889 77.8125 23.3778C78.3594 24.0889 78.4766 25.4666 78.125 27.3333Z" fill="white"/>
<path d="M29.2188 21.4222C31.4063 21.4222 32.8516 21.8667 33.5938 22.8C34.3359 23.7333 34.4922 25.2889 34.1016 27.5111C33.7109 29.8222 32.9297 31.5111 31.7969 32.4889C30.6641 33.4667 28.9453 33.9556 26.6406 33.9556H23.1641L25.3125 21.4222H29.2188ZM15.2344 46.6667H20.9766L22.3438 38.7111H27.2656C29.4531 38.7111 31.2109 38.4445 32.6172 37.9111C34.0234 37.3778 35.2734 36.5333 36.4453 35.2889C37.4219 34.2667 38.2031 33.1556 38.7891 31.9556C39.375 30.7556 39.8047 29.4222 40.0391 27.9556C40.6641 24.4 40.1953 21.6445 38.6719 19.6445C37.1484 17.6445 34.7266 16.6667 31.4063 16.6667H20.3516L15.2344 46.6667ZM44.2578 8.71112H49.9609L48.5938 16.6667H53.6719C56.875 16.6667 59.0625 17.2889 60.2734 18.5778C61.4844 19.8667 61.8359 21.9111 61.3672 24.7556L58.9844 38.7111H53.2031L55.4688 25.4222C55.7422 23.9111 55.625 22.8889 55.1953 22.3556C54.7656 21.8222 53.7891 21.5111 52.3438 21.5111H47.7734L44.8438 38.7111H39.1406L44.2578 8.71112ZM74.0234 21.4222C76.2109 21.4222 77.6562 21.8667 78.3984 22.8C79.1406 23.7333 79.2969 25.2889 78.9062 27.5111C78.5156 29.8222 77.7344 31.5111 76.6016 32.4889C75.4688 33.4667 73.75 33.9556 71.4453 33.9556H67.9688L70.1172 21.4222H74.0234ZM60.0391 46.6667H65.7812L67.1484 38.7111H72.0703C74.2578 38.7111 76.0156 38.4445 77.4219 37.9111C78.8281 37.3778 80.0781 36.5333 81.25 35.2889C82.2266 34.2667 83.0078 33.1556 83.5938 31.9556C84.1797 30.7556 84.6094 29.4222 84.8437 27.9556C85.4687 24.4 85 21.6445 83.4766 19.6445C81.9531 17.6445 79.5313 16.6667 76.2109 16.6667H65.1563L60.0391 46.6667Z" fill="#000004"/>
</g>
<defs>
<radialGradient id="paint0_radial_709_17" cx="0" cy="0" r="1" gradientUnits="userSpaceOnUse" gradientTransform="translate(30.0201 10.5189) scale(65.6623 74.7091)">
<stop stop-color="white"/>
<stop offset="0.5" stop-color="#4C6B97"/>
<stop offset="1" stop-color="#231F20"/>
</radialGradient>
<clipPath id="clip0_709_17">
<rect width="100" height="60" fill="white"/>
</clipPath>
</defs>
</svg>
