<svg width="59" height="57" viewBox="0 0 59 57" fill="none" xmlns="http://www.w3.org/2000/svg">
<g clip-path="url(#clip0_723_2)">
<path d="M45.1719 0H13.8281C6.19106 0 0 5.9812 0 13.3594V43.6406C0 51.0188 6.19106 57 13.8281 57H45.1719C52.8089 57 59 51.0188 59 43.6406V13.3594C59 5.9812 52.8089 0 45.1719 0Z" fill="#242938"/>
<path fill-rule="evenodd" clip-rule="evenodd" d="M19.1289 24.4922C20.5117 19.1484 23.969 16.4766 29.5 16.4766C37.7969 16.4766 38.834 22.4883 42.9824 23.4902C45.7483 24.1584 48.168 23.1565 50.2422 20.4844C48.8596 25.8279 45.4021 28.5 39.8711 28.5C31.5742 28.5 30.5371 22.4883 26.3887 21.4863C23.6228 20.8184 21.2031 21.8203 19.1289 24.4922ZM8.75781 36.5156C10.1406 31.1721 13.5977 28.5 19.1289 28.5C27.4258 28.5 28.4629 34.5117 32.6113 35.5137C35.3772 36.1819 37.7969 35.1799 39.8711 32.5078C38.4885 37.8513 35.031 40.5234 29.5 40.5234C21.2031 40.5234 20.166 34.5117 16.0176 33.5098C13.252 32.8416 10.832 33.8435 8.75781 36.5156Z" fill="url(#paint0_linear_723_2)"/>
</g>
<defs>
<linearGradient id="paint0_linear_723_2" x1="19.9355" y1="16.4766" x2="36.8632" y2="41.8488" gradientUnits="userSpaceOnUse">
<stop stop-color="#32B1C1"/>
<stop offset="1" stop-color="#14C6B7"/>
</linearGradient>
<clipPath id="clip0_723_2">
<rect width="59" height="57" fill="white"/>
</clipPath>
</defs>
</svg>
