<svg width="79" height="76" viewBox="0 0 79 76" fill="none" xmlns="http://www.w3.org/2000/svg">
<path fill-rule="evenodd" clip-rule="evenodd" d="M26.6977 71.9821C26.7464 72.5866 26.7156 73.2118 26.8822 73.7853C26.9532 74.0276 27.4377 74.1588 27.7346 74.3405L28.1203 74.5786C27.9753 74.6599 27.8308 74.8096 27.6839 74.8113C26.5324 74.8304 25.3805 74.8308 24.2289 74.8125C24.0759 74.8102 23.9259 74.6718 23.7753 74.5964C23.8975 74.5115 24.0148 74.3642 24.1438 74.3541C24.9159 74.2918 25.151 73.8406 25.1473 73.1732C25.1405 71.9465 25.1436 70.7186 25.1492 69.4907C25.1522 68.8067 24.9504 68.3074 24.1129 68.2765C23.9969 68.2718 23.887 68.1008 23.7747 68.0076C23.887 67.9417 24.0006 67.817 24.1117 67.8187C25.5867 67.836 27.068 67.8045 28.535 67.9238C29.691 68.0182 30.4526 68.7877 30.531 69.6748C30.6162 70.648 30.0971 71.3159 28.9233 71.7446L28.4733 71.9061C29.2294 72.5937 29.899 73.2658 30.6434 73.8489C30.9736 74.1083 31.4414 74.2627 31.8709 74.334C32.7307 74.4753 33.1973 74.1196 33.2207 73.2997C33.2584 71.9762 33.2405 70.6509 33.2275 69.3269C33.2214 68.7201 32.9504 68.3193 32.2468 68.286C32.1141 68.2801 31.9876 68.1358 31.8586 68.0557C32.0061 67.9725 32.1536 67.8182 32.2999 67.8187C33.8009 67.8306 35.3087 67.7861 36.7998 67.9143C39.3445 68.1317 40.7621 70.1688 40.0178 72.4197C39.5642 73.7925 38.4779 74.5685 37.0806 74.6599C34.6378 74.8202 32.1814 74.7876 29.7305 74.8042C29.5355 74.8054 29.2948 74.6017 29.1479 74.4343C28.5838 73.7901 28.0518 73.1203 27.5013 72.4654C27.3346 72.2671 27.1488 72.0848 26.9717 71.8948L26.6977 71.9821ZM34.7946 68.4974C34.7946 70.151 34.7736 71.7535 34.8168 73.3543C34.8236 73.6001 35.0698 73.9712 35.2982 74.0591C36.1974 74.404 37.6509 73.8406 38.057 72.9654C38.6008 71.7939 38.6668 70.5607 37.9317 69.4492C37.2065 68.3525 35.9987 68.4618 34.7946 68.4974ZM26.7582 71.2055C27.5371 71.2245 28.3956 71.3913 28.7282 70.5684C28.9146 70.1071 28.8726 69.3916 28.6153 68.9712C28.2246 68.3323 27.4389 68.444 26.7575 68.5247L26.7582 71.2055Z" fill="#337BA2"/>
<path fill-rule="evenodd" clip-rule="evenodd" d="M59.7252 70.864C60.24 70.7572 60.7504 70.7726 61.0818 70.5452C61.3602 70.3552 61.4293 69.8826 61.6422 69.4254C61.765 69.6373 61.8805 69.7454 61.8829 69.8553C61.8983 70.6746 61.9014 71.4946 61.8829 72.314C61.8798 72.4422 61.7434 72.5675 61.6688 72.6946C61.5848 72.6269 61.4595 72.5758 61.4225 72.4891C60.9701 71.4376 60.9726 71.437 59.6678 71.5492C59.8585 72.3698 59.1969 73.4189 60.2171 73.9587C60.7374 74.2336 61.5768 74.1789 62.1853 73.999C62.7044 73.847 63.0988 73.3038 63.5506 72.9315V74.7697C63.3006 74.7911 63.1111 74.8208 62.9204 74.8208C60.3646 74.8243 57.8089 74.8137 55.2537 74.8321C54.813 74.8356 54.5149 74.7288 54.2458 74.3731C53.7169 73.6713 53.1355 73.0063 52.564 72.3353C52.4208 72.1673 52.2344 72.0337 51.9339 71.7642C51.9339 72.4493 51.9079 72.9404 51.9413 73.4278C51.9758 73.9373 52.2307 74.2751 52.8164 74.3387C52.9886 74.3577 53.1429 74.5316 53.3052 74.6355C53.138 74.6979 52.972 74.8125 52.8041 74.8154C51.6765 74.8309 50.5495 74.8303 49.4219 74.816C49.2491 74.8137 49.0775 74.7133 48.8874 74.6528L48.9837 74.4728C50.3687 73.9349 50.3724 73.9349 50.3711 72.39C50.3702 71.4261 50.3622 70.4622 50.3471 69.4984C50.3366 68.8328 50.149 68.305 49.3046 68.2765C49.1831 68.2723 49.0676 68.1061 48.9485 68.0146C49.088 67.9475 49.2281 67.8217 49.367 67.8228C50.7933 67.8359 52.2276 67.7908 53.6441 67.9178C55.1945 68.0568 56.153 69.3007 55.5771 70.4454C55.2624 71.0707 54.5353 71.5041 53.8953 72.1186C54.5026 72.653 55.2019 73.4213 56.0499 73.98C57.2478 74.7697 58.0669 74.3191 58.0971 72.9422C58.1224 71.7861 58.0928 70.6289 58.0878 69.4717C58.0854 68.7859 57.865 68.2877 57.0281 68.2765C56.9139 68.2747 56.8016 68.1577 56.6665 68.0805C57.1016 67.7718 61.2947 67.6596 63.1148 67.8834L63.2321 69.7917L63.0266 69.8725C62.6032 69.4468 62.6556 68.5668 61.7799 68.5638C61.1108 68.5609 60.4418 68.4932 59.7234 68.4516C59.7252 69.2568 59.7252 69.9894 59.7252 70.864ZM51.9197 71.2001C53.5305 71.2624 54.1699 70.8421 54.1317 69.7965C54.094 68.7883 53.3941 68.3816 51.9197 68.5371V71.2001Z" fill="#515151"/>
<path fill-rule="evenodd" clip-rule="evenodd" d="M7.1316 71.6549C7.74632 69.9052 8.35301 68.1536 8.98501 66.4098C9.07204 66.1699 9.28497 65.9722 9.43988 65.7543C9.59294 65.9787 9.80217 66.1847 9.88981 66.4311C10.4644 68.0455 11.0112 69.6677 11.5698 71.2874C11.6142 71.4174 11.6716 71.5427 11.8012 71.8627C12.374 70.1925 12.9042 68.7111 13.3837 67.2143C13.5503 66.6959 13.3337 66.3213 12.7067 66.2536C12.4999 66.2304 12.2993 66.1527 12.058 66.0909C12.4752 65.6462 15.7346 65.6135 16.2715 66.0268C16.1259 66.0933 16.0098 66.1877 15.8901 66.1924C14.8717 66.2304 14.4002 66.8438 14.1101 67.6893C13.3337 69.9515 12.5425 72.2083 11.7543 74.4669C11.6722 74.7015 11.5692 74.9289 11.4754 75.1593L11.2155 75.1771L9.00661 68.7521L6.77301 75.1575L6.55453 75.1705C6.44035 74.9324 6.30025 74.7015 6.21693 74.4539C5.49667 72.3277 4.78567 70.1985 4.07282 68.0705C3.76731 67.1567 3.4618 66.2482 2.21385 66.1901C2.13238 66.1865 2.0577 66.0541 1.97932 65.9823C2.07683 65.9051 2.17435 65.7608 2.2731 65.7596C3.67535 65.7453 5.07883 65.7453 6.48108 65.7602C6.5786 65.7608 6.67426 65.9068 6.77116 65.9852C6.66686 66.06 6.57428 66.1687 6.45763 66.2031C5.33435 66.5297 5.2535 66.655 5.60715 67.7029C6.05337 69.0288 6.51318 70.3493 6.96743 71.6727L7.1316 71.6549Z" fill="#3179A1"/>
<path fill-rule="evenodd" clip-rule="evenodd" d="M40.4159 66.0547C40.5881 65.9116 40.6844 65.7614 40.7782 65.7631C42.6032 65.7893 44.4431 65.7079 46.2489 65.9098C47.9573 66.1004 48.9035 67.6429 48.3881 69.0917C47.9265 70.3914 46.7878 70.7981 45.4997 70.911C44.9559 70.959 44.4036 70.9187 43.7567 70.9187C43.8141 71.7814 43.8431 72.5693 43.9265 73.3519C43.9962 74.0133 44.4591 74.2781 45.1133 74.3315C45.2608 74.344 45.3954 74.5025 45.5355 74.594C45.3812 74.6688 45.2281 74.8077 45.0726 74.8095C43.7203 74.8267 42.3668 74.8261 41.0146 74.8107C40.8523 74.8089 40.6918 74.6807 40.5307 74.6112C40.6653 74.5132 40.7973 74.3363 40.9356 74.331C41.8385 74.2977 42.1774 73.7586 42.1885 73.0039C42.2156 71.1746 42.2132 69.3452 42.1897 67.5159C42.1798 66.7381 41.7892 66.2405 40.9109 66.2061C40.7801 66.2013 40.6504 66.1289 40.4159 66.0547ZM43.8246 70.0364C45.4799 70.2014 46.1101 70.0494 46.5088 69.3435C46.9087 68.6357 46.91 67.8953 46.4372 67.2261C45.7836 66.3005 44.7837 66.5742 43.8246 66.5409V70.0364Z" fill="#4D4D4D"/>
<path fill-rule="evenodd" clip-rule="evenodd" d="M19.1797 75.0874C17.7009 75.0256 16.4962 74.5791 15.6037 73.5157C14.3366 72.0064 14.5292 69.9568 16.0426 68.6517C17.675 67.2446 20.374 67.184 22.0496 68.5502C23.184 69.4759 23.7216 70.6479 23.3525 72.0848C22.9359 73.7057 21.7472 74.5738 20.132 74.9681C19.7951 75.0494 19.4396 75.0565 19.1797 75.0874ZM21.9842 71.377L21.846 71.2898C21.754 70.8688 21.7003 70.4354 21.5633 70.0281C21.1671 68.8578 20.3376 68.2795 19.1174 68.2771C17.9015 68.2747 17.0837 68.856 16.6863 70.0387C16.3332 71.0903 16.3789 72.1323 16.9227 73.1144C17.7343 74.5797 19.9031 74.8546 20.9646 73.5514C21.4596 72.944 21.6534 72.1085 21.9842 71.377Z" fill="#3279A1"/>
<path fill-rule="evenodd" clip-rule="evenodd" d="M75.7585 67.8757L76.3097 67.4114V70.0096L76.1498 70.1254C76.0208 69.9503 75.8425 69.7917 75.7702 69.5964C75.4055 68.6137 74.6192 68.0805 73.7218 68.3394C73.4138 68.4279 73.0435 68.7247 72.9614 68.9985C72.8942 69.2217 73.1373 69.6635 73.3756 69.8143C73.9977 70.2085 74.6908 70.5007 75.3592 70.8254C76.8133 71.5332 77.333 72.5147 76.8411 73.6374C76.3418 74.778 74.8272 75.3682 73.47 74.9277C73.096 74.8053 72.7497 74.6047 72.4035 74.4461L71.8746 75.1147L71.6406 75.0458C71.6406 74.1688 71.6351 73.2919 71.6499 72.4149C71.6511 72.33 71.7826 72.2475 71.8536 72.1638C71.9647 72.2932 72.1301 72.4072 72.1788 72.5556C72.5016 73.5389 73.1231 74.192 74.231 74.3012C74.8624 74.3636 75.4796 74.2888 75.6987 73.5965C75.8986 72.9629 75.4394 72.6055 74.9463 72.3353C74.4038 72.0385 73.8304 71.7956 73.275 71.5219C73.0312 71.4014 72.7824 71.282 72.5633 71.1271C71.7875 70.5767 71.4814 69.7834 71.711 68.9789C71.9159 68.2598 72.651 67.6507 73.5607 67.6251C74.2341 67.6067 74.9154 67.7736 75.7585 67.8757ZM65.7175 74.423C65.615 74.6189 65.5583 74.7834 65.4527 74.9104C65.3892 74.9864 65.233 75.0589 65.1503 75.0339C65.0719 75.0102 64.9886 74.8594 64.9867 74.7632C64.9738 73.9919 64.9738 73.22 64.9874 72.4499C64.9886 72.3555 65.0972 72.2635 65.1565 72.1703C65.27 72.2398 65.4317 72.2849 65.4879 72.3852C65.5922 72.5717 65.6163 72.7985 65.7076 72.9932C66.1199 73.8732 66.955 74.4236 67.9128 74.29C68.3134 74.2348 68.8078 73.942 69.0065 73.6143C69.2744 73.1743 68.9534 72.7213 68.5041 72.4713C67.8999 72.1352 67.274 71.833 66.647 71.5385C65.2293 70.8729 64.6312 69.7739 65.1392 68.7366C65.6441 67.7053 67.1944 67.276 68.4899 67.8127C68.6479 67.8781 68.7979 67.9612 68.9219 68.0229L69.5873 67.4969C69.657 67.6851 69.7014 67.7498 69.7021 67.8145C69.707 68.5365 69.7051 69.2579 69.7051 69.9793L69.5095 70.1052C69.3793 69.9449 69.1984 69.803 69.1275 69.6219C68.7738 68.7123 68.214 68.2082 67.3932 68.3044C67.008 68.3489 66.5174 68.6036 66.3279 68.9088C66.0502 69.3571 66.4513 69.7169 66.8741 69.9354C67.4685 70.2436 68.077 70.5244 68.68 70.8159C70.1724 71.5362 70.6976 72.5366 70.1822 73.6802C69.6805 74.7941 68.1171 75.3706 66.7772 74.9134C66.4291 74.7952 66.1063 74.6047 65.7175 74.423Z" fill="#505050"/>
<path fill-rule="evenodd" clip-rule="evenodd" d="M40.2783 0.828294C23.7494 0.544482 9.93857 13.4473 9.93425 29.0938C9.92931 45.1903 23.1038 58.0325 39.6068 58.0088C55.9561 57.9856 69.1898 45.1915 69.1898 29.4096C69.1892 13.8843 56.0159 1.09845 40.2783 0.828294ZM39.5697 56.5737C23.9389 56.5773 11.368 44.3846 11.3686 29.2214C11.3692 14.4489 24.1351 2.21767 39.558 2.21233C55.2543 2.20758 67.7604 14.4756 67.7555 29.8734C67.7505 44.4101 54.9136 56.5707 39.5697 56.5737ZM54.626 21.3364C54.0125 20.3639 53.2583 19.4204 52.9115 18.3599C52.5165 17.1534 52.1888 15.7801 52.398 14.5706C52.7535 12.5198 54.3884 11.5015 56.6023 11.3068C44.4906 0.492826 25.4578 4.36348 18.4446 16.1132C21.1442 15.9927 23.7216 15.8353 26.3008 15.8021C26.789 15.7955 27.5969 16.1922 27.7117 16.5603C27.9685 17.3826 27.2501 17.6694 26.486 17.7258C25.683 17.7864 24.8788 17.844 23.9463 17.9123L33.164 44.3306C33.3855 43.982 33.4769 43.8841 33.517 43.7695C35.2217 38.8681 36.9362 33.9696 38.5977 29.054C38.7495 28.6057 38.6742 28.0119 38.5076 27.5512C37.6287 25.1103 36.5758 22.7222 35.8049 20.2516C35.2772 18.56 34.5779 17.4658 32.4999 17.6617C32.1456 17.695 31.7142 16.9623 31.3173 16.5834C31.7969 16.3085 32.2727 15.8021 32.7566 15.7949C36.9886 15.7326 41.2214 15.7338 45.4534 15.7985C45.9385 15.8062 46.4144 16.3264 46.8945 16.6084C46.4742 16.9777 46.1125 17.5311 45.6213 17.6736C44.8337 17.9022 43.9604 17.8588 43.018 17.9396L52.2468 44.3519C53.6453 39.8846 54.9463 35.7818 56.2104 31.6695C57.3398 27.9989 56.6671 24.57 54.626 21.3364ZM32.5375 52.3385C32.4807 52.497 32.4776 52.6728 32.4338 52.9364C37.654 54.3281 42.7717 54.2278 48.0116 52.5297L40.0079 31.4397C37.446 38.6027 34.9896 45.47 32.5375 52.3385ZM28.5042 51.3849L16.4456 19.5623C11.0057 29.7849 15.1439 45.3821 28.5042 51.3849ZM62.1113 18.4894C61.9446 20.2671 62.0607 22.246 61.5305 24.0481C60.2819 28.2946 58.7556 32.468 57.2861 36.6528C55.6888 41.2009 54.0274 45.7289 52.3937 50.2657C60.0696 45.8886 64.2875 39.428 64.959 30.9362C65.3416 26.103 63.6086 19.4103 62.1113 18.4894Z" fill="#87AADF"/>
</svg>
