<svg width="76" height="76" viewBox="0 0 76 76" fill="none" xmlns="http://www.w3.org/2000/svg">
<path d="M8.89732 8.9953C8.7566 4.9489 11.9088 1.21777 16.1702 1.21777H59.8345C64.0959 1.21777 67.2481 4.9489 67.1074 8.9953C66.972 12.882 67.1478 17.917 68.4148 22.0222C69.686 26.1404 71.8295 28.7428 75.3403 29.0777V32.87C71.8295 33.2043 69.686 35.8073 68.4148 39.9255C67.1478 44.0307 66.972 49.0657 67.1074 52.9524C67.2481 56.9988 64.0959 60.7293 59.8345 60.7293H16.1702C11.9088 60.7293 8.7566 56.9982 8.89732 52.9524C9.0327 49.0657 8.85695 44.0307 7.58929 39.9255C6.31867 35.8079 4.16929 33.2049 0.658447 32.87V29.0777C4.16929 28.7434 6.31867 26.1404 7.58929 22.0222C8.85695 17.917 9.0321 12.882 8.89732 8.9953Z" fill="url(#paint0_linear_709_77)"/>
<g filter="url(#filter0_d_709_77)">
<path d="M39.8466 47.0095C46.7454 47.0095 50.9022 43.6317 50.9022 38.0605C50.9022 33.8491 47.9364 30.8002 43.532 30.3174V30.1417C46.7679 29.6156 49.3068 26.6107 49.3068 23.2542C49.3068 18.4727 45.5317 15.3579 39.7789 15.3579H26.8351V47.0095H39.8466ZM31.869 19.3723H38.5659C42.2056 19.3723 44.2736 20.995 44.2736 23.9346C44.2736 27.0708 41.8689 28.8259 37.5096 28.8259H31.869V19.3723ZM31.869 42.9958V32.5767H38.5207C43.2844 32.5767 45.7562 34.3312 45.7562 37.753C45.7562 41.1748 43.3521 42.9958 38.8129 42.9958H31.869Z" fill="url(#paint1_linear_709_77)"/>
<path d="M39.8466 47.0095C46.7454 47.0095 50.9022 43.6317 50.9022 38.0605C50.9022 33.8491 47.9364 30.8002 43.532 30.3174V30.1417C46.7679 29.6156 49.3068 26.6107 49.3068 23.2542C49.3068 18.4727 45.5317 15.3579 39.7789 15.3579H26.8351V47.0095H39.8466ZM31.869 19.3723H38.5659C42.2056 19.3723 44.2736 20.995 44.2736 23.9346C44.2736 27.0708 41.8689 28.8259 37.5096 28.8259H31.869V19.3723ZM31.869 42.9958V32.5767H38.5207C43.2844 32.5767 45.7562 34.3312 45.7562 37.753C45.7562 41.1748 43.3521 42.9958 38.8129 42.9958H31.869Z" fill="white"/>
</g>
<path d="M6.76758 72.0991V61.5671H9.76423C10.6745 61.5671 11.397 61.7898 11.9308 62.2357C12.4646 62.681 12.7312 63.2611 12.7312 63.976C12.7312 64.5739 12.5697 65.0928 12.2467 65.5334C11.9231 65.974 11.4778 66.2875 10.9096 66.4733V66.503C11.6197 66.5861 12.1879 66.8551 12.6136 67.3105C13.0394 67.7611 13.2525 68.3484 13.2525 69.0733C13.2525 69.974 12.9295 70.7038 12.2835 71.2619C11.6369 71.82 10.8217 72.0991 9.83727 72.0991H6.76758ZM8.00139 62.6834V66.0838H9.26489C9.94058 66.0838 10.472 65.9223 10.8585 65.5993C11.245 65.271 11.4386 64.8102 11.4386 64.2182C11.4386 63.1952 10.7653 62.6834 9.41867 62.6834H8.00139ZM8.00139 67.1929V70.9828H9.67577C10.4001 70.9828 10.9612 70.8112 11.3579 70.4686C11.7592 70.126 11.9599 69.6558 11.9599 69.0585C11.9599 67.8146 11.1126 67.1929 9.41867 67.1929H8.00139ZM18.3718 72.2772C17.2603 72.2772 16.3715 71.9269 15.7059 71.2269C15.045 70.5221 14.7143 69.5893 14.7143 68.4285C14.7143 67.1656 15.0593 66.1788 15.7498 65.4687C16.4404 64.7591 17.3731 64.4041 18.5482 64.4041C19.6692 64.4041 20.5432 64.749 21.1702 65.4396C21.8013 66.1301 22.1172 67.0872 22.1172 68.311C22.1172 69.5109 21.777 70.4728 21.096 71.1978C20.4209 71.9174 19.5124 72.2772 18.3718 72.2772ZM18.4597 65.4176C17.686 65.4176 17.0745 65.6818 16.6238 66.2109C16.1732 66.7345 15.9481 67.4589 15.9481 68.3846C15.9481 69.2758 16.1755 69.9788 16.631 70.4924C17.0864 71.0072 17.6955 71.2643 18.4597 71.2643C19.2381 71.2643 19.836 71.0119 20.2522 70.5072C20.6732 70.0031 20.8834 69.2859 20.8834 68.3555C20.8834 67.4156 20.6732 66.6906 20.2522 66.1812C19.836 65.6723 19.2381 65.4176 18.4597 65.4176ZM27.1855 72.2772C26.074 72.2772 25.1851 71.9269 24.5195 71.2269C23.8587 70.5221 23.528 69.5893 23.528 68.4285C23.528 67.1656 23.8729 66.1788 24.5635 65.4687C25.254 64.7591 26.1868 64.4041 27.3618 64.4041C28.4828 64.4041 29.3568 64.749 29.9838 65.4396C30.6155 66.1301 30.9314 67.0872 30.9314 68.311C30.9314 69.5109 30.5912 70.4728 29.9102 71.1978C29.2345 71.9174 28.3266 72.2772 27.1855 72.2772ZM27.2733 65.4176C26.4997 65.4176 25.8881 65.6818 25.4375 66.2109C24.9868 66.7345 24.7618 67.4589 24.7618 68.3846C24.7618 69.2758 24.9892 69.9788 25.4446 70.4924C25.9 71.0072 26.5092 71.2643 27.2733 71.2643C28.0517 71.2643 28.6496 71.0119 29.0659 70.5072C29.4868 70.0031 29.697 69.2859 29.697 68.3555C29.697 67.4156 29.4868 66.6906 29.0659 66.1812C28.6496 65.6723 28.0523 65.4176 27.2733 65.4176ZM36.3435 72.0278C36.0596 72.1846 35.685 72.263 35.2195 72.263C33.9025 72.263 33.2441 71.5285 33.2441 70.0595V65.6088H31.9515V64.5804H33.2441V62.7445L34.4488 62.355V64.5804H36.3429V65.6088H34.4488V69.8464C34.4488 70.3505 34.5343 70.7109 34.7059 70.9264C34.8769 71.142 35.1607 71.2494 35.5573 71.2494C35.8607 71.2494 36.1232 71.1663 36.3435 71V72.0278ZM37.4965 71.826V70.5334C38.1526 71.0179 38.8746 71.2601 39.6631 71.2601C40.7206 71.2601 41.2496 70.908 41.2496 70.2032C41.2496 70.002 41.2033 69.8333 41.1101 69.6962C41.015 69.547 40.8898 69.4194 40.7425 69.3215C40.5736 69.2047 40.3912 69.1087 40.1993 69.0353C39.978 68.9408 39.7551 68.8501 39.5307 68.7634C39.2306 68.6458 38.9366 68.5135 38.6496 68.3668C38.4196 68.2438 38.2071 68.0907 38.0178 67.9114C37.8544 67.7443 37.7248 67.5474 37.636 67.3313C37.5529 67.1157 37.5114 66.864 37.5114 66.5748C37.5114 66.2227 37.5921 65.9116 37.7536 65.642C37.9145 65.3685 38.1354 65.135 38.3996 64.9592C38.6797 64.7682 38.9903 64.6264 39.3181 64.54C39.6679 64.4466 40.0284 64.3997 40.3905 64.4005C41.0418 64.4005 41.6243 64.5133 42.1385 64.7389V65.9579C41.5851 65.5951 40.9486 65.414 40.2284 65.414C40.0027 65.414 39.8003 65.4408 39.6192 65.4948C39.4511 65.538 39.292 65.6104 39.1489 65.7085C39.0248 65.7973 38.922 65.9125 38.8479 66.0458C38.7785 66.1771 38.7432 66.3236 38.7452 66.4721C38.7452 66.6675 38.7796 66.8313 38.8479 66.9637C38.9209 67.0961 39.026 67.2137 39.1638 67.3164C39.3003 67.4191 39.4672 67.5124 39.6631 67.5955C39.8591 67.6786 40.0817 67.7695 40.3317 67.8674C40.6642 67.9945 40.9628 68.1269 41.2276 68.264C41.4731 68.3834 41.7006 68.5367 41.9033 68.7194C42.0892 68.8857 42.2311 69.0793 42.329 69.2995C42.4318 69.5198 42.4834 69.7817 42.4834 70.0851C42.4834 70.4574 42.4003 70.7804 42.234 71.0547C42.072 71.329 41.854 71.5564 41.5797 71.7375C41.2896 71.9256 40.9692 72.0623 40.6327 72.1418C40.2648 72.2314 39.8874 72.2759 39.5087 72.2742C38.7351 72.2742 38.0647 72.1246 37.4965 71.826ZM47.8218 72.0278C47.5386 72.1846 47.164 72.263 46.6985 72.263C45.3815 72.263 44.723 71.5285 44.723 70.0595V65.6088H43.4305V64.5804H44.723V62.7445L45.9278 62.355V64.5804H47.8218V65.6088H45.9278V69.8464C45.9278 70.3505 46.0133 70.7109 46.1849 70.9264C46.3559 71.142 46.6397 71.2494 47.0363 71.2494C47.3397 71.2494 47.6021 71.1663 47.8224 71L47.8218 72.0278ZM53.3532 65.7994C53.1424 65.6379 52.839 65.5571 52.4424 65.5571C51.9282 65.5571 51.4971 65.7994 51.1498 66.2839C50.8072 66.769 50.6356 67.4298 50.6356 68.267V72.1009H49.4315V64.5804H50.6356V66.1301H50.6653C50.8369 65.6011 51.0987 65.1902 51.4508 64.8963C51.8029 64.5976 52.1972 64.448 52.6336 64.448C52.9465 64.448 53.1864 64.4825 53.3532 64.5513V65.7994ZM60.0454 72.0991H58.8406V70.9234H58.811C58.2879 71.8248 57.5166 72.2754 56.4989 72.2754C55.7496 72.2754 55.1618 72.0771 54.7355 71.6805C54.3145 71.2839 54.1043 70.7572 54.1043 70.1011C54.1043 68.6957 54.9314 67.8787 56.5862 67.6489L58.8412 67.3325C58.8412 66.0547 58.3247 65.4158 57.2915 65.4158C56.3861 65.4158 55.5685 65.724 54.8388 66.3409V65.1071C55.578 64.6374 56.43 64.4023 57.3949 64.4023C59.1625 64.4023 60.046 65.3375 60.046 67.2078L60.0454 72.0991ZM58.84 68.2949L57.0267 68.5443C56.4686 68.6227 56.047 68.7622 55.7632 68.9629C55.4794 69.1588 55.3375 69.5091 55.3375 70.0132C55.3375 70.3808 55.4675 70.6818 55.727 70.9169C55.9912 71.1467 56.3415 71.2613 56.7774 71.2613C57.3747 71.2613 57.8669 71.0535 58.2534 70.6379C58.6453 70.2169 58.8412 69.6855 58.8412 69.0436L58.84 68.2949ZM63.5485 71.0125H63.5188V75.5589H62.3147V64.5786H63.5194V65.9003H63.5485C64.141 64.9016 65.0079 64.4023 66.1485 64.4023C67.1181 64.4023 67.8745 64.7401 68.4178 65.4158C68.9611 66.0862 69.233 66.9875 69.233 68.1186C69.233 69.3767 68.9273 70.3855 68.3151 71.1443C67.7029 71.8984 66.8658 72.2754 65.8035 72.2754C64.8292 72.2754 64.0775 71.855 63.5485 71.0125ZM63.5188 67.979V69.03C63.5188 69.6516 63.7195 70.1801 64.1215 70.6159C64.5282 71.047 65.0418 71.2625 65.6634 71.2625C66.3931 71.2625 66.9637 70.9834 67.3752 70.4253C67.7908 69.8672 67.9986 69.0911 67.9986 68.0966C67.9986 67.2594 67.8057 66.6033 67.4191 66.1283C67.0326 65.6533 66.5083 65.4158 65.8475 65.4158C65.1469 65.4158 64.584 65.6605 64.1583 66.1503C63.732 66.6354 63.5188 67.2446 63.5188 67.979Z" fill="#7952B3"/>
<defs>
<filter id="filter0_d_709_77" x="22.9051" y="12.4109" width="31.9271" height="39.5116" filterUnits="userSpaceOnUse" color-interpolation-filters="sRGB">
<feFlood flood-opacity="0" result="BackgroundImageFix"/>
<feColorMatrix in="SourceAlpha" type="matrix" values="0 0 0 0 0 0 0 0 0 0 0 0 0 0 0 0 0 0 127 0" result="hardAlpha"/>
<feOffset dy="0.983"/>
<feGaussianBlur stdDeviation="1.965"/>
<feColorMatrix type="matrix" values="0 0 0 0 0 0 0 0 0 0 0 0 0 0 0 0 0 0 0.15 0"/>
<feBlend mode="normal" in2="BackgroundImageFix" result="effect1_dropShadow_709_77"/>
<feBlend mode="normal" in="SourceGraphic" in2="effect1_dropShadow_709_77" result="shape"/>
</filter>
<linearGradient id="paint0_linear_709_77" x1="11.7562" y1="2.79299" x2="77.0141" y2="54.5953" gradientUnits="userSpaceOnUse">
<stop stop-color="#9013FE"/>
<stop offset="1" stop-color="#6610F2"/>
</linearGradient>
<linearGradient id="paint1_linear_709_77" x1="29.1128" y1="17.4408" x2="43.6988" y2="42.1099" gradientUnits="userSpaceOnUse">
<stop stop-color="white"/>
<stop offset="1" stop-color="#F1E5FC"/>
</linearGradient>
</defs>
</svg>
