<svg width="36" height="36" viewBox="0 0 36 36" fill="none" xmlns="http://www.w3.org/2000/svg">
<g clip-path="url(#clip0_54_79)">
<path d="M26.5398 18C26.5356 16.6553 26.3915 15.3148 26.1098 14H29.7098C29.5244 13.4515 29.3005 12.9169 29.0398 12.4H25.6898C25.06 10.296 24.0832 8.31207 22.7998 6.52998C21.9797 6.18518 21.1247 5.93035 20.2498 5.76998C22.0081 7.65922 23.3353 9.90766 24.1398 12.36H18.7498V5.59998H17.2498V12.37H11.8598C12.6658 9.91322 13.9966 7.66117 15.7598 5.76998C14.8885 5.92768 14.0369 6.17914 13.2198 6.51998C11.9312 8.2946 10.9477 10.2717 10.3098 12.37H6.93977C6.67433 12.8963 6.44708 13.441 6.25977 14H9.88977C9.60805 15.3148 9.46394 16.6553 9.45977 18C9.46253 19.4708 9.63024 20.9366 9.95977 22.37H6.41977C6.62665 22.9305 6.87396 23.4753 7.15977 24H10.3898C11.002 25.9158 11.9096 27.7242 13.0798 29.36C13.9177 29.7194 14.7931 29.9844 15.6898 30.15C14.0577 28.3697 12.8025 26.2778 11.9998 24H17.2598V30.34H18.7598V24H23.9998C23.1943 26.2787 21.9357 28.3708 20.2998 30.15C21.2006 29.9786 22.0794 29.707 22.9198 29.34C24.0881 27.7104 24.9956 25.9088 25.6098 24H28.8098C29.0943 23.485 29.3416 22.9503 29.5498 22.4H25.9998C26.345 20.9583 26.5261 19.4823 26.5398 18ZM17.2498 22.37H11.5098C10.8057 19.6178 10.7749 16.7366 11.4198 13.97H17.2498V22.37ZM24.4898 22.37H18.7498V14H24.5798C24.867 15.3137 25.0079 16.6552 24.9998 18C25.0079 19.4719 24.8366 20.9394 24.4898 22.37Z" fill="black"/>
<path d="M18 2C14.8355 2 11.7421 2.93838 9.11088 4.69649C6.4797 6.45459 4.42894 8.95345 3.21793 11.8771C2.00693 14.8007 1.69008 18.0177 2.30744 21.1214C2.92481 24.2251 4.44866 27.0761 6.6863 29.3137C8.92394 31.5513 11.7749 33.0752 14.8786 33.6926C17.9823 34.3099 21.1993 33.9931 24.1229 32.7821C27.0466 31.5711 29.5454 29.5203 31.3035 26.8891C33.0616 24.2579 34 21.1645 34 18C34 13.7565 32.3143 9.68687 29.3137 6.68629C26.3131 3.68571 22.2435 2 18 2ZM18 32C15.2311 32 12.5243 31.1789 10.222 29.6406C7.91974 28.1022 6.12532 25.9157 5.06569 23.3576C4.00607 20.7994 3.72882 17.9845 4.26901 15.2687C4.80921 12.553 6.14258 10.0584 8.10051 8.1005C10.0584 6.14257 12.553 4.8092 15.2687 4.26901C17.9845 3.72881 20.7994 4.00606 23.3576 5.06569C25.9157 6.12531 28.1022 7.91973 29.6406 10.222C31.1789 12.5243 32 15.2311 32 18C32 21.713 30.525 25.274 27.8995 27.8995C25.274 30.525 21.713 32 18 32Z" fill="black"/>
</g>
<defs>
<clipPath id="clip0_54_79">
<rect width="36" height="36" fill="white"/>
</clipPath>
</defs>
</svg>
