<svg width="79" height="76" viewBox="0 0 79 76" fill="none" xmlns="http://www.w3.org/2000/svg">
<path d="M7.46797 60.8H6.04844C4.25859 60.8 2.83906 59.4344 2.83906 57.7125C2.83906 55.9313 4.32031 54.5063 6.17188 54.5063H7.46797V52.0125H5.73984C2.59219 52.0125 0 54.5063 0 57.5344C0 60.9188 2.83906 63.65 6.35703 63.65H7.46797V60.8ZM71.532 60.8H70.1125C68.3227 60.8 66.9031 59.4344 66.9031 57.7125C66.9031 55.9313 68.3844 54.5063 70.2359 54.5063H71.532V52.0125H69.7422C66.5945 52.0125 64.0023 54.5063 64.0023 57.5344C64.0023 60.9188 66.8414 63.65 70.3594 63.65H71.4703V60.8H71.532ZM13.6398 52.0125C10.8625 52.0125 8.64062 54.625 8.64062 57.8313C8.64062 61.0375 10.8625 63.65 13.6398 63.65C16.4172 63.65 18.6391 61.0375 18.6391 57.8313C18.6391 54.625 16.4172 52.0125 13.6398 52.0125ZM13.6398 61.4531C12.4055 61.4531 11.4797 59.85 11.4797 57.8906C11.4797 55.9313 12.4672 54.3281 13.6398 54.3281C14.8742 54.3281 15.8 55.9313 15.8 57.8906C15.8 59.85 14.8125 61.4531 13.6398 61.4531ZM18.6391 63.65L20.5523 52.0125H24.5641L25.7367 57.8313L27.2797 52.0125H30.9828L32.7727 63.65H29.6867L28.6992 55.7531L27.0328 63.65H24.9344L22.6508 55.8719L21.6016 63.65H18.6391ZM33.4516 63.65L35.3648 52.0125H39.3766L40.4875 57.8313L42.0305 52.0125H45.7953L47.5852 63.65H44.4992L43.45 55.7531L41.7836 63.65H39.7469L37.4016 55.8719L36.4141 63.65H33.4516ZM48.0789 63.65V52.0125H54.3742V54.2688H51.2266V56.7625H54.0039V58.9H50.8563V61.1563H54.3742V63.65H48.0789ZM72.7047 63.65V52.0125H79V54.2688H75.8523V56.7625H78.6297V58.9H75.482V61.1563H79V63.65H72.7047Z" fill="black"/>
<path d="M61.7188 58.2469C62.7063 58.2469 63.5703 57.475 63.5703 56.4656V55.3969C63.5703 53.4969 61.9656 52.0125 60.0524 52.0125H55.4852V63.65H58.3242V58.1875L61.4102 63.65H64.5578L61.7188 58.2469ZM59.3117 57.2375H58.2625V54.3875H59.4352C60.2375 54.3875 60.8547 54.9813 60.8547 55.7531C60.793 56.5844 60.1141 57.2375 59.3117 57.2375Z" fill="black"/>
<path d="M64.1875 42.4531H14.9976C11.0476 42.4531 7.77655 39.3656 7.77655 35.5063V19.2375C7.77655 15.4375 10.9859 12.2906 14.9976 12.2906H64.1875C68.1375 12.2906 71.4086 15.3781 71.4086 19.2375V35.5063C71.4086 39.3656 68.1375 42.4531 64.1875 42.4531Z" fill="#7F54B3"/>
<path d="M14.689 36.575C14.689 36.575 16.1086 42.1563 18.9476 38.4156C21.7867 34.675 24.5023 28.7969 24.5023 28.7969C24.5023 28.7969 24.6875 27.3125 25.4898 30.5781C26.2922 33.8438 29.7484 38.1781 29.7484 38.1781C29.7484 38.1781 32.8961 41.9188 34.1922 38C33.6984 32.775 35.6117 23.275 37.525 18.7031C38.3273 14.6656 33.8836 15.7938 33.5133 16.8031C33.143 17.8125 30.3039 23.75 30.1187 30.1031C30.1187 30.1031 27.7734 24.0469 27.5883 21.7906C27.4031 19.5938 24.9961 19 23.5766 21.1375C22.157 23.275 17.8984 31.5281 17.8984 31.5281L15.1828 18.05C15.1828 18.05 12.4672 14.6063 10.8625 18.8219C10.8625 18.8219 13.7015 35.3875 14.689 36.575ZM51.0414 21.7906C46.7828 15.0219 40.5492 20.1281 40.5492 20.1281C40.5492 20.1281 35.7969 25.4125 37.957 32.5969C41.4133 39.7219 46.1656 36.5156 47.4617 35.9813C48.7578 35.3875 54.4359 29.2125 51.0414 21.7906ZM47.832 27.7281C47.832 30.5781 45.425 33.1906 43.3883 32.5969C42.2773 32.0031 41.5984 30.2813 41.5984 27.4906C42.5859 22.8594 44.8078 22.2656 45.9187 22.3844C48.0172 23.4531 47.8937 25.8875 47.832 27.7281ZM66.8414 21.7906C62.5828 15.0219 56.3492 20.1281 56.3492 20.1281C56.3492 20.1281 51.5969 25.4125 53.757 32.5969C57.2133 39.7219 61.9656 36.5156 63.2617 35.9813C64.6195 35.3875 70.2976 29.2125 66.8414 21.7906ZM63.632 27.7281C63.632 30.5781 61.225 33.1906 59.1883 32.5969C58.0773 32.0031 57.3984 30.2813 57.3984 27.4906C58.3859 22.8594 60.6078 22.2656 61.7187 22.3844C63.8172 23.4531 63.7555 25.8875 63.632 27.7281Z" fill="white"/>
<path d="M38.2656 42.4531L49.3133 48.6875L47.0297 42.4531L40.6727 40.7313L38.2656 42.4531Z" fill="#7F54B3"/>
</svg>
