<svg width="46" height="44" viewBox="0 0 46 44" fill="none" xmlns="http://www.w3.org/2000/svg">
<g clip-path="url(#clip0_52_20)">
<path fill-rule="evenodd" clip-rule="evenodd" d="M22.9996 0.519775C14.5568 0.519775 7.70996 7.06718 7.70996 15.1446C7.70996 21.6061 12.0907 27.0882 18.166 29.0218C18.93 29.1572 19.2107 28.7045 19.2107 28.3181C19.2107 27.9696 19.1963 26.8173 19.1898 25.5956C14.9359 26.4801 14.0386 23.87 14.0386 23.87C13.3432 22.1795 12.3409 21.7298 12.3409 21.7298C10.9537 20.8223 12.4451 20.8409 12.4451 20.8409C13.9807 20.944 14.7893 22.3482 14.7893 22.3482C16.1528 24.584 18.3661 23.9374 19.2384 23.5637C19.376 22.6184 19.772 21.9729 20.2094 21.6078C16.8133 21.2383 13.2433 19.9839 13.2433 14.3801C13.2433 12.7834 13.8405 11.4789 14.8188 10.4545C14.6599 10.086 14.1367 8.59824 14.9668 6.58387C14.9668 6.58387 16.2505 6.19131 19.1715 8.08365C20.3916 7.75949 21.6997 7.5969 22.9989 7.5914C24.2984 7.59724 25.6072 7.75984 26.8291 8.08365C29.7472 6.19165 31.0294 6.58421 31.0294 6.58421C31.8618 8.59859 31.3385 10.086 31.1797 10.4548C32.16 11.4785 32.753 12.7834 32.753 14.3805C32.753 19.9973 29.1761 21.2342 25.7714 21.5958C26.3198 22.0495 26.8086 22.9398 26.8086 24.3045C26.8086 26.2612 26.7913 27.8359 26.7913 28.3175C26.7913 28.7059 27.0666 29.1624 27.8414 29.0187C33.9134 27.0827 38.2885 21.6027 38.2885 15.1432C38.2892 7.06753 31.4438 0.519775 22.9996 0.519775Z" fill="#181616"/>
<path d="M13.5017 21.5174C13.4675 21.5902 13.3478 21.6119 13.2393 21.562C13.1279 21.5139 13.0661 21.4153 13.102 21.342C13.1344 21.2678 13.2544 21.2468 13.3655 21.2967C13.4769 21.3448 13.5397 21.4445 13.5017 21.5174ZM14.1209 22.1787C14.0479 22.243 13.9052 22.2131 13.8082 22.1107C13.7083 22.0086 13.6896 21.8721 13.7636 21.8068C13.8384 21.7422 13.9767 21.7724 14.0763 21.8745C14.1769 21.9776 14.1967 22.1127 14.1205 22.1784L14.1209 22.1787ZM14.7235 23.0202C14.6301 23.0828 14.4766 23.0244 14.3821 22.8941C14.288 22.7645 14.288 22.6088 14.3839 22.5459C14.4788 22.4833 14.6297 22.5397 14.7253 22.6686C14.8195 22.8009 14.8195 22.957 14.7235 23.0202ZM15.5494 23.8342C15.4656 23.9226 15.287 23.8989 15.1566 23.7782C15.0229 23.6603 14.9859 23.4929 15.0696 23.4045C15.1548 23.3162 15.3341 23.3409 15.4656 23.4606C15.5986 23.5781 15.6389 23.7462 15.5494 23.8342ZM16.6893 24.3065C16.6519 24.4214 16.4802 24.4733 16.3069 24.4248C16.1337 24.3746 16.0209 24.2405 16.0554 24.125C16.0913 24.0095 16.2645 23.9556 16.4388 24.0075C16.6113 24.057 16.7249 24.1897 16.6893 24.3065ZM17.9399 24.3942C17.9446 24.5145 17.7976 24.6149 17.6158 24.6169C17.4332 24.6211 17.2852 24.5234 17.283 24.4045C17.283 24.2828 17.4267 24.1838 17.6093 24.1811C17.7912 24.1776 17.9399 24.2746 17.9399 24.3942ZM19.1043 24.2048C19.1259 24.3224 19.0001 24.4434 18.8193 24.4753C18.6418 24.5069 18.4779 24.4341 18.4549 24.3172C18.4334 24.1969 18.5617 24.0766 18.7388 24.0449C18.9196 24.0147 19.0813 24.0852 19.1043 24.2048Z" fill="#181616"/>
<path d="M8.93255 37.2289H5.08724C5.03959 37.2289 4.99388 37.247 4.96018 37.2792C4.92649 37.3114 4.90755 37.3552 4.90755 37.4007V39.1992C4.90755 39.2448 4.92649 39.2885 4.96018 39.3208C4.99388 39.353 5.03959 39.3711 5.08724 39.3711H6.58691V41.6055C6.58691 41.6055 6.25018 41.7155 5.31832 41.7155C4.22007 41.7155 2.68518 41.3319 2.68518 38.1034C2.68518 34.8745 4.28368 34.4493 5.78443 34.4493C7.08321 34.4493 7.6424 34.6679 7.9989 34.7735C8.1103 34.8058 8.21452 34.6992 8.21452 34.6043L8.64326 32.8667C8.64395 32.8407 8.63804 32.8149 8.62602 32.7915C8.614 32.7682 8.59624 32.748 8.57426 32.7326C8.42943 32.6336 7.54752 32.162 5.31904 32.162C2.75166 32.162 0.118164 33.2063 0.118164 38.2292C0.118164 43.2514 3.13332 43.9997 5.6741 43.9997C7.77788 43.9997 9.05402 43.1396 9.05402 43.1396C9.10649 43.1121 9.11224 43.0417 9.11224 43.009V37.4004C9.11224 37.3548 9.09331 37.3111 9.05961 37.2789C9.02592 37.2466 8.98021 37.2289 8.93255 37.2289ZM28.5728 32.591H26.4072C26.3835 32.5911 26.3602 32.5956 26.3384 32.6044C26.3166 32.6131 26.2968 32.6259 26.2802 32.6419C26.2636 32.658 26.2504 32.677 26.2415 32.698C26.2326 32.7189 26.2281 32.7413 26.2282 32.7639L26.2289 36.7665H22.8537V32.7639C22.8538 32.7413 22.8493 32.7189 22.8404 32.698C22.8315 32.6771 22.8184 32.6581 22.8018 32.6421C22.7852 32.626 22.7655 32.6132 22.7437 32.6045C22.722 32.5957 22.6987 32.5911 22.6751 32.591H20.5098C20.4862 32.5911 20.4628 32.5956 20.441 32.6044C20.4192 32.6131 20.3995 32.6259 20.3828 32.6419C20.3662 32.658 20.3531 32.677 20.3442 32.698C20.3352 32.7189 20.3307 32.7413 20.3309 32.7639V43.6023C20.3309 43.6976 20.4114 43.7752 20.5098 43.7752H22.6751C22.6987 43.7751 22.722 43.7705 22.7438 43.7617C22.7656 43.7529 22.7853 43.7401 22.8019 43.724C22.8185 43.708 22.8316 43.6889 22.8405 43.6679C22.8494 43.647 22.8539 43.6246 22.8537 43.602V38.9662H26.2289L26.2232 43.602C26.2232 43.6976 26.3037 43.7752 26.4029 43.7752H28.5728C28.5964 43.7751 28.6198 43.7705 28.6415 43.7617C28.6633 43.7529 28.683 43.7401 28.6996 43.724C28.7162 43.708 28.7293 43.6889 28.7382 43.6679C28.7471 43.647 28.7516 43.6246 28.7514 43.602V32.7635C28.7516 32.741 28.7472 32.7186 28.7383 32.6976C28.7294 32.6767 28.7163 32.6577 28.6997 32.6416C28.6831 32.6256 28.6633 32.6128 28.6415 32.6042C28.6197 32.5955 28.5964 32.591 28.5728 32.591ZM11.6225 32.8375C10.852 32.8375 10.2267 33.44 10.2267 34.186C10.2267 34.9309 10.852 35.5352 11.6225 35.5352C12.3937 35.5352 13.0186 34.9309 13.0186 34.186C13.0186 33.44 12.3933 32.8375 11.6225 32.8375ZM12.6848 36.1402H10.5264C10.4272 36.1402 10.3388 36.2378 10.3388 36.3327V43.5006C10.3388 43.7113 10.4761 43.7739 10.6536 43.7739H12.5978C12.8116 43.7739 12.8638 43.6735 12.8638 43.4971V36.3131C12.8639 36.2905 12.8593 36.2682 12.8504 36.2473C12.8414 36.2264 12.8283 36.2074 12.8116 36.1914C12.795 36.1754 12.7753 36.1626 12.7535 36.1539C12.7317 36.1452 12.7084 36.1403 12.6848 36.1402ZM36.9807 36.1564H34.8316C34.808 36.1565 34.7847 36.1612 34.763 36.17C34.7412 36.1788 34.7215 36.1916 34.705 36.2077C34.6884 36.2238 34.6754 36.2428 34.6665 36.2637C34.6577 36.2847 34.6532 36.307 34.6534 36.3296V41.644C34.6534 41.644 34.1071 42.0255 33.3327 42.0255C32.5582 42.0255 32.3527 41.6897 32.3527 40.9641V36.3296C32.3529 36.307 32.3484 36.2846 32.3395 36.2637C32.3306 36.2427 32.3175 36.2236 32.3009 36.2076C32.2843 36.1915 32.2646 36.1787 32.2428 36.1699C32.221 36.1611 32.1977 36.1565 32.1741 36.1564H29.9934C29.9456 36.1567 29.9 36.1752 29.8665 36.2076C29.8329 36.2401 29.8142 36.284 29.8144 36.3296V41.3147C29.8144 43.47 31.0704 43.9973 32.7979 43.9973C34.2153 43.9973 35.3581 43.2479 35.3581 43.2479C35.3581 43.2479 35.412 43.6432 35.4372 43.6896C35.4623 43.7364 35.5259 43.7835 35.5953 43.7835L36.9825 43.7776C37.0062 43.7776 37.0296 43.773 37.0515 43.7642C37.0733 43.7555 37.0932 43.7427 37.1098 43.7266C37.1265 43.7105 37.1397 43.6915 37.1487 43.6705C37.1577 43.6495 37.1623 43.6271 37.1622 43.6044L37.1611 36.3286C37.1609 36.283 37.1419 36.2393 37.1083 36.207C37.0747 36.1747 37.0291 36.1564 36.9814 36.156L36.9807 36.1564ZM42.8536 35.913C41.6332 35.913 40.803 36.4338 40.803 36.4338V32.7635C40.8031 32.741 40.7986 32.7186 40.7897 32.6977C40.7808 32.6768 40.7677 32.6578 40.7511 32.6417C40.7346 32.6257 40.7148 32.6129 40.6931 32.6041C40.6713 32.5954 40.648 32.5908 40.6244 32.5906H38.4534C38.4297 32.5906 38.4063 32.5951 38.3844 32.6038C38.3625 32.6125 38.3427 32.6253 38.326 32.6413C38.3093 32.6574 38.2961 32.6765 38.2871 32.6975C38.2781 32.7184 38.2736 32.7409 38.2737 32.7635V43.602C38.2736 43.6246 38.2781 43.6471 38.2871 43.6681C38.2961 43.6891 38.3093 43.7081 38.326 43.7242C38.3427 43.7403 38.3625 43.753 38.3844 43.7617C38.4063 43.7704 38.4297 43.7749 38.4534 43.7749H39.9599C40.0282 43.7749 40.0792 43.7416 40.117 43.6828C40.154 43.6243 40.2082 43.183 40.2082 43.183C40.2082 43.183 41.0959 43.9873 42.7771 43.9873C44.75 43.9873 45.8821 43.0303 45.8821 39.6898C45.8821 36.3492 44.0744 35.9126 42.8532 35.9126L42.8536 35.913ZM42.0055 42.0194C41.2605 41.9977 40.7549 41.6742 40.7549 41.6742V38.2419C40.7549 38.2419 41.2537 37.9497 41.8653 37.8968C42.6391 37.8304 43.3848 38.0542 43.3848 39.8197C43.3848 41.6818 43.0487 42.0493 42.0058 42.019L42.0055 42.0194ZM19.1172 41.9788C19.0227 41.9788 18.7805 42.0156 18.5315 42.0156C17.7336 42.0156 17.463 41.6608 17.463 41.2016V38.1539H19.0874C19.1111 38.1539 19.1346 38.1494 19.1565 38.1407C19.1784 38.132 19.1983 38.1192 19.215 38.1031C19.2317 38.087 19.2449 38.0679 19.2538 38.0468C19.2628 38.0258 19.2673 38.0033 19.2671 37.9806V36.3114C19.2672 36.2888 19.2626 36.2663 19.2536 36.2454C19.2446 36.2245 19.2314 36.2054 19.2147 36.1894C19.198 36.1734 19.1782 36.1607 19.1563 36.152C19.1345 36.1433 19.1111 36.1388 19.0874 36.1388H17.463L17.4605 34.0866C17.4605 34.0086 17.4188 33.9698 17.3247 33.9698H15.1109C15.0254 33.9698 14.979 34.0062 14.979 34.0849V36.2059C14.979 36.2059 13.8696 36.462 13.7949 36.4826C13.7576 36.493 13.7248 36.5147 13.7015 36.5445C13.6781 36.5742 13.6655 36.6104 13.6655 36.6476V37.9803C13.6654 38.0029 13.6699 38.0252 13.6788 38.0462C13.6877 38.0671 13.7008 38.0861 13.7174 38.1021C13.734 38.1182 13.7537 38.131 13.7755 38.1397C13.7972 38.1485 13.8205 38.1531 13.8441 38.1532H14.979V41.3597C14.979 43.7419 16.7256 43.9756 17.9044 43.9756C18.4423 43.9756 19.0867 43.8106 19.1931 43.7728C19.2578 43.7498 19.2948 43.6862 19.2948 43.6171L19.2962 42.151C19.2955 42.1056 19.2763 42.0622 19.2428 42.03C19.2093 41.9978 19.164 41.9793 19.1165 41.9785L19.1172 41.9788Z" fill="#100E0F"/>
</g>
<defs>
<clipPath id="clip0_52_20">
<rect width="46" height="44" fill="white"/>
</clipPath>
</defs>
</svg>
