<svg width="71" height="76" viewBox="0 0 71 76" fill="none" xmlns="http://www.w3.org/2000/svg">
<g clip-path="url(#clip0_709_14)">
<path d="M0 0H71V76H0V0Z" fill="#F7DF1E"/>
<path d="M18.6686 63.511L24.1017 59.9913C25.1501 61.9807 26.1036 63.6639 28.3908 63.6639C30.5832 63.6639 31.9658 62.746 31.9658 59.1752V34.8914H38.6379V59.2761C38.6379 66.6734 34.587 70.0405 28.6768 70.0405C23.3393 70.0405 20.2411 67.0816 18.6683 63.5105M42.2619 62.7457L47.6945 59.3788C49.1248 61.8788 50.9835 63.7153 54.2717 63.7153C57.0366 63.7153 58.7994 62.2357 58.7994 60.195C58.7994 57.7463 56.9883 56.8789 53.9381 55.4509L52.2704 54.685C47.4566 52.4919 44.2635 49.7369 44.2635 43.9212C44.2635 38.5643 48.0761 34.4829 54.0338 34.4829C58.2755 34.4829 61.3257 36.0647 63.5178 40.1969L58.3226 43.7683C57.1786 41.5747 55.9399 40.7075 54.0335 40.7075C52.0793 40.7075 50.8402 42.0339 50.8402 43.7683C50.8402 45.9108 52.0793 46.7786 54.9387 48.105L56.6067 48.8701C62.2784 51.4722 65.4714 54.1248 65.4714 60.0931C65.4714 66.5217 60.7532 70.0414 54.4146 70.0414C48.219 70.0414 44.2155 66.8785 42.2616 62.746" fill="black"/>
</g>
<defs>
<clipPath id="clip0_709_14">
<rect width="71" height="76" fill="white"/>
</clipPath>
</defs>
</svg>
