<svg width="51" height="30" viewBox="0 0 51 30" fill="none" xmlns="http://www.w3.org/2000/svg">
<g clip-path="url(#clip0_52_67)">
<path d="M25.5 29.9111C39.5833 29.9111 51 23.2153 51 14.9556C51 6.69583 39.5833 0 25.5 0C11.4167 0 0 6.69583 0 14.9556C0 23.2153 11.4167 29.9111 25.5 29.9111Z" fill="url(#paint0_radial_52_67)"/>
<path d="M25.5 28.8C39.0331 28.8 50.0039 22.6016 50.0039 14.9555C50.0039 7.30945 39.0331 1.11108 25.5 1.11108C11.9669 1.11108 0.996094 7.30945 0.996094 14.9555C0.996094 22.6016 11.9669 28.8 25.5 28.8Z" fill="#6181B6"/>
<path d="M30.4609 19.4445L31.6761 12.4667C31.955 10.8889 31.716 9.71113 30.9988 8.9778C30.3015 8.26669 29.1062 7.91113 27.3531 7.91113H25.2414L25.839 4.44447C25.8589 4.31113 25.839 4.1778 25.7593 4.06669C25.6796 3.95558 25.58 3.91113 25.4605 3.91113H22.5519C22.3527 3.91113 22.1933 4.06669 22.1535 4.26669L20.8586 11.6667C20.739 10.8222 20.4601 10.1111 19.982 9.53336C19.1253 8.44447 17.7906 7.88891 15.9777 7.88891H10.3796C10.1804 7.88891 10.0211 8.04447 9.98121 8.24447L7.37144 23.2667C7.35152 23.4 7.37144 23.5334 7.45113 23.6445C7.53082 23.7556 7.63043 23.8 7.74996 23.8H10.6785C10.8777 23.8 11.0371 23.6445 11.0769 23.4445L11.7144 19.8222H13.8859C15.0214 19.8222 15.9976 19.6889 16.7347 19.4222C17.5117 19.1334 18.2089 18.6667 18.8265 18.0222C19.3246 17.5111 19.7429 16.9334 20.0617 16.3111L19.5437 19.3111C19.5238 19.4445 19.5437 19.5778 19.6234 19.6889C19.7031 19.8 19.8027 19.8445 19.9222 19.8445H22.8308C23.03 19.8445 23.1894 19.6889 23.2293 19.4889L24.6636 11.2667H26.6558C27.5125 11.2667 27.7515 11.4445 27.8312 11.5334C27.891 11.6 28.0105 11.8667 27.871 12.6889L26.7156 19.3334C26.6957 19.4667 26.7156 19.6 26.7953 19.7111C26.875 19.8222 26.9746 19.8667 27.0941 19.8667H30.0824C30.2617 19.8 30.421 19.6445 30.4609 19.4445ZM16.9937 13.6667C16.8144 14.7111 16.4757 15.4667 15.9777 15.8889C15.4796 16.3111 14.6628 16.5334 13.5871 16.5334H12.2921L13.2285 11.1556H14.9019C16.1371 11.1556 16.6351 11.4445 16.8343 11.6889C17.0933 12.0445 17.1531 12.7334 16.9937 13.6667ZM42.8921 9.53336C42.0355 8.44447 40.7007 7.88891 38.8878 7.88891H33.25C33.0507 7.88891 32.8914 8.04447 32.8515 8.24447L30.2418 23.2445C30.2218 23.3778 30.2418 23.5111 30.3214 23.6222C30.4011 23.7334 30.5007 23.7778 30.6203 23.7778H33.5488C33.748 23.7778 33.9074 23.6222 33.9472 23.4222L34.5847 19.8H36.7562C37.8918 19.8 38.8679 19.6667 39.605 19.4C40.382 19.1111 41.0793 18.6445 41.6968 18C42.2148 17.4667 42.6531 16.8667 42.9718 16.2222C43.2906 15.5778 43.5296 14.8667 43.6691 14.0889C44.0078 12.1556 43.7488 10.6445 42.8921 9.53336ZM39.8441 13.6667C39.6648 14.7111 39.3261 15.4667 38.8281 15.8889C38.33 16.3111 37.5132 16.5334 36.4375 16.5334H35.1425L36.0789 11.1556H37.7523C38.9875 11.1556 39.4855 11.4445 39.6847 11.6889C39.9636 12.0445 40.0234 12.7334 39.8441 13.6667Z" fill="white"/>
<path d="M14.9016 10.7111C16.0172 10.7111 16.7543 10.9334 17.1328 11.4C17.5113 11.8667 17.591 12.6445 17.3918 13.7556C17.1926 14.9111 16.7941 15.7556 16.2164 16.2445C15.6387 16.7334 14.7621 16.9778 13.5867 16.9778H11.8137L12.9094 10.7111H14.9016ZM7.76953 23.3334H10.698L11.3953 19.3556H13.9055C15.0211 19.3556 15.9176 19.2223 16.6348 18.9556C17.352 18.6889 17.9895 18.2667 18.5871 17.6445C19.0852 17.1334 19.4836 16.5778 19.7824 15.9778C20.0813 15.3778 20.3004 14.7111 20.4199 13.9778C20.7387 12.2 20.4996 10.8223 19.7227 9.82226C18.9457 8.82226 17.7105 8.33337 16.0172 8.33337H10.3793L7.76953 23.3334ZM22.5715 4.35559H25.4801L24.7828 8.33337H27.3727C29.0062 8.33337 30.1219 8.64448 30.7395 9.28892C31.357 9.93337 31.5363 10.9556 31.2973 12.3778L30.082 19.3556H27.1336L28.2891 12.7111C28.4285 11.9556 28.3688 11.4445 28.1496 11.1778C27.9305 10.9111 27.4324 10.7556 26.6953 10.7556H24.3645L22.8703 19.3556H19.9617L22.5715 4.35559ZM37.752 10.7111C38.8676 10.7111 39.6047 10.9334 39.9832 11.4C40.3617 11.8667 40.4414 12.6445 40.2422 13.7556C40.043 14.9111 39.6445 15.7556 39.0668 16.2445C38.4891 16.7334 37.6125 16.9778 36.4371 16.9778H34.6641L35.7598 10.7111H37.752ZM30.6199 23.3334H33.5484L34.2457 19.3556H36.7559C37.8715 19.3556 38.768 19.2223 39.4852 18.9556C40.2023 18.6889 40.8398 18.2667 41.4375 17.6445C41.9355 17.1334 42.334 16.5778 42.6328 15.9778C42.9316 15.3778 43.1508 14.7111 43.2703 13.9778C43.5891 12.2 43.35 10.8223 42.573 9.82226C41.7961 8.82226 40.5609 8.33337 38.8676 8.33337H33.2297L30.6199 23.3334Z" fill="#000004"/>
</g>
<defs>
<radialGradient id="paint0_radial_52_67" cx="0" cy="0" r="1" gradientUnits="userSpaceOnUse" gradientTransform="translate(15.3103 5.25945) scale(33.4878 37.3545)">
<stop stop-color="white"/>
<stop offset="0.5" stop-color="#4C6B97"/>
<stop offset="1" stop-color="#231F20"/>
</radialGradient>
<clipPath id="clip0_52_67">
<rect width="51" height="30" fill="white"/>
</clipPath>
</defs>
</svg>
