<svg width="37" height="52" viewBox="0 0 37 52" fill="none" xmlns="http://www.w3.org/2000/svg">
<g clip-path="url(#clip0_58_26)">
<path d="M36.9358 10.1935L33.5768 47.6969L18.4776 51.8687L3.42004 47.7026L0.0644531 10.1935H36.9358Z" fill="#E44D26"/>
<path d="M18.5 48.6797L30.7009 45.3087L33.5713 13.2603H18.5V48.6797Z" fill="#F16529"/>
<path d="M11.9704 22.4611H18.5003V17.8607H6.92578L7.0362 19.0949L8.17077 31.7722H18.5003V27.1719H12.3922L11.9704 22.4611ZM13.0107 34.0725H8.37702L9.02365 41.2957L18.479 43.9116L18.5003 43.9058V39.1195L18.48 39.1248L13.3394 37.7414L13.0107 34.0725Z" fill="#EBEBEB"/>
<path d="M3.49512 0H5.84086V2.30975H7.98671V0H10.3326V6.9945H7.98686V4.65234H5.841V6.9945H3.49526L3.49512 0ZM13.4172 2.31955H11.3524V0H17.8294V2.31955H15.7634V6.9945H13.4176V2.31955H13.4172ZM18.8573 0H21.3032L22.8078 2.45768L24.3109 0H26.7579V6.9945H24.4217V3.52765L22.8078 6.01457H22.7673L21.1525 3.52765V6.9945H18.8573V0ZM27.9252 0H30.2717V4.68259H33.5705V6.9945H27.9251L27.9252 0Z" fill="black"/>
<path d="M18.4845 31.7722H24.1685L23.6326 37.7385L18.4844 39.1234V43.9094L27.9473 41.2957L28.0166 40.5185L29.1015 28.4072L29.2141 27.1719H18.4845V31.7722ZM18.4845 22.4498V22.4611H29.6341L29.7266 21.4271L29.937 19.0949L30.0473 17.8607H18.4845V22.4498Z" fill="white"/>
</g>
<defs>
<clipPath id="clip0_58_26">
<rect width="37" height="52" fill="white"/>
</clipPath>
</defs>
</svg>
