<svg width="44" height="30" viewBox="0 0 44 30" fill="none" xmlns="http://www.w3.org/2000/svg">
<g clip-path="url(#clip0_52_72)">
<path d="M13.0891 19.7963L14.4263 24.1362C14.7268 25.1215 14.8521 25.8094 14.8019 26.2015C15.5332 24.2423 16.0442 22.1072 16.3349 19.7963H17.9428C17.2514 23.5584 16.3396 26.2923 15.2077 27.9978C14.3258 29.312 13.3597 29.9691 12.3076 29.9691C12.0271 29.9691 11.6813 29.8843 11.271 29.716V28.8091C11.4715 28.8385 11.7067 28.8543 11.9772 28.8543C12.468 28.8543 12.8636 28.7182 13.1645 28.4466C13.5248 28.1158 13.7052 27.7439 13.7052 27.3317C13.7052 27.0503 13.5645 26.4727 13.2845 25.599L11.4214 19.7963H13.0891ZM2.8551 17.1289L5.30432 24.6036H5.31945L7.7837 17.1289H9.79705C10.2379 20.8358 10.4983 24.2276 10.5782 27.3019H8.88078C8.82105 24.428 8.65562 21.7256 8.38509 19.1942H8.37031L5.78548 27.3019H4.49281L1.92363 19.1942H1.9085C1.71789 21.6253 1.59792 24.3277 1.54791 27.3019H0C0.100031 23.6847 0.350367 20.294 0.751008 17.1289H2.8551Z" fill="#00758F"/>
<path d="M30.2927 16.978C32.9273 16.978 34.2446 18.6616 34.2446 22.0272C34.2446 23.8561 33.8484 25.2375 33.0569 26.1708C32.9142 26.3413 32.7565 26.4887 32.5905 26.6252L34.4549 27.5473L34.4531 27.5472L33.7911 28.6906L31.3631 27.2736C30.9607 27.3928 30.5178 27.4524 30.0353 27.4524C28.7417 27.4524 27.7754 27.0753 27.1365 26.322C26.4353 25.4887 26.0848 24.1769 26.0848 22.3887C26.0848 20.5702 26.4803 19.194 27.2721 18.2595C27.9933 17.4047 29.0003 16.978 30.2927 16.978ZM22.2249 16.9927C23.1665 16.9927 24.0227 17.2447 24.7939 17.747L24.4022 18.6201C23.7423 18.3395 23.0916 18.1986 22.45 18.1986C21.9294 18.1986 21.5283 18.324 21.2486 18.5762C20.9674 18.8261 20.7935 19.1478 20.7935 19.5399C20.7935 20.1425 21.2227 20.6651 22.0151 21.1066C22.2747 21.2485 22.5334 21.3921 22.7912 21.5373L22.8503 21.5706L22.88 21.5872L22.9392 21.6205L22.9687 21.6372L23.0279 21.6705C23.6277 22.0088 24.1921 22.3317 24.1921 22.3317C24.9845 22.8943 25.3795 23.4941 25.3795 24.482C25.3795 25.3448 25.0634 26.053 24.4333 26.6072C23.8028 27.1589 22.9557 27.4355 21.8949 27.4355C20.9027 27.4355 19.9412 27.1171 19.0098 26.4857L19.4455 25.6118C20.247 26.0137 20.9723 26.2144 21.6236 26.2144C22.2345 26.2144 22.7126 26.078 23.0585 25.8086C23.4038 25.5372 23.6106 25.1587 23.6106 24.6788C23.6106 24.0748 23.1905 23.5584 22.4199 23.1252C22.1787 22.9919 21.9383 22.8574 21.6985 22.7215L21.6395 22.688C21.531 22.6268 21.4218 22.5647 21.3148 22.5039L21.2568 22.4709C20.7364 22.1749 20.2865 21.9162 20.2865 21.9162C19.5162 21.3526 19.1299 20.7478 19.1299 19.7514C19.1299 18.9273 19.418 18.2612 19.9932 17.7545C20.5699 17.2466 21.3138 16.9927 22.2249 16.9927ZM37.3408 17.1289V26.0505H40.541V27.3019H35.7178V17.1289L37.3408 17.1289ZM42.3192 26.0543V26.2658H41.9674V27.3007H41.6984V26.2658H41.3329V26.0543H42.3192ZM42.9689 26.0543L43.3067 26.904L43.617 26.0543H43.9983V27.3007H43.7448V26.3522L43.3916 27.3007H43.2088L42.855 26.3522H42.8414V27.3007H42.6016V26.0543H42.9689ZM30.127 18.2291C28.5744 18.2291 27.7977 19.5107 27.7977 22.0723C27.7977 23.5397 28.0036 24.6037 28.4144 25.2668C28.795 25.8806 29.3909 26.1869 30.2024 26.1869C31.755 26.1869 32.5316 24.8952 32.5316 22.3132C32.5316 20.8664 32.3258 19.8115 31.9154 19.148C31.5345 18.5356 30.9388 18.2291 30.1271 18.2291" fill="#F29111"/>
<path d="M26.0578 0.63035C26.5728 -0.635495 28.3737 0.323129 29.0725 0.765307C29.2438 0.875937 29.4402 1.10966 29.6366 1.19605C29.943 1.20809 30.2491 1.23207 30.556 1.24488C31.1316 1.38018 31.6707 1.49072 32.1243 1.74912C34.2322 2.99081 35.6044 4.25614 36.8672 6.34617C37.1371 6.78886 37.2719 7.26791 37.4923 7.74697C37.7983 8.46104 38.142 9.21061 38.4971 9.88582C38.6561 10.2059 38.7791 10.5619 38.9998 10.8322C39.086 10.9559 39.3309 10.9923 39.4772 11.0661C39.8818 11.2756 40.372 11.4346 40.7525 11.6805C41.4632 12.1237 42.1502 12.6518 42.7748 13.1925C43.0076 13.4012 43.1663 13.6967 43.3881 13.9174V14.0288C43.1912 14.0893 42.995 14.1512 42.7986 14.2008C42.3697 14.311 41.9898 14.286 41.5737 14.3963C41.3165 14.4709 40.9973 14.5693 40.7276 14.5944L40.7525 14.6195C40.9112 15.0729 41.7695 15.4417 42.1621 15.7129C42.6389 16.0571 43.0807 16.4745 43.4363 16.9539C43.5591 17.0762 43.6819 17.1875 43.8041 17.3095C43.8895 17.4331 43.9136 17.593 44 17.7032V17.7405C43.9043 17.7067 43.8355 17.6422 43.7702 17.5748L43.7313 17.5342C43.6924 17.4938 43.6531 17.4541 43.6083 17.4213C43.3378 17.2365 43.0692 17.0154 42.7986 16.8436C42.3335 16.5484 41.7941 16.3771 41.3165 16.0808C41.0465 15.9088 40.7891 15.7129 40.5318 15.516C40.2984 15.3435 40.0415 15.0122 39.8949 14.7664C39.8085 14.6306 39.7967 14.4709 39.698 14.3727C39.7156 14.2086 39.8659 14.1598 40.0176 14.1198L40.0525 14.1106C40.1048 14.097 40.156 14.0834 40.2007 14.0655C40.8379 13.7949 41.5975 13.6967 42.5784 13.7213C42.5414 13.4749 41.9285 13.1679 41.7328 13.0204C41.3401 12.7373 40.9242 12.4418 40.5076 12.1841C40.2868 12.0492 39.9064 11.9507 39.6618 11.8404C39.3309 11.7051 38.5953 11.5699 38.4119 11.3122C38.1004 10.9059 37.8766 10.4214 37.6594 9.9319L37.6003 9.79832C37.5805 9.7538 37.5608 9.7093 37.541 9.66482C37.2842 9.07539 36.9652 8.46087 36.7078 7.85734C36.5732 7.56293 36.5114 7.30453 36.3641 7.02216C35.4697 5.28938 34.146 3.83863 32.5411 2.81837C32.0137 2.4864 31.4257 2.17918 30.7765 1.97038C30.4086 1.85923 29.967 1.92069 29.5751 1.83542H29.3171C29.0969 1.77336 28.9131 1.53989 28.7413 1.4168C28.3619 1.15909 27.9819 0.986052 27.5281 0.802184C27.3691 0.72843 26.9151 0.556682 26.7567 0.691897C26.6585 0.716568 26.6088 0.753616 26.5846 0.852126C26.487 0.999118 26.5729 1.22055 26.6336 1.35611C26.8177 1.74895 27.0748 1.98241 27.3082 2.31439C27.5158 2.6088 27.7737 2.94078 27.921 3.26089C28.2386 3.949 28.3865 4.71138 28.6808 5.3994C28.79 5.65814 28.9626 5.95256 29.1215 6.18594C29.2562 6.37118 29.501 6.50511 29.5751 6.7396C29.7227 6.98545 29.354 7.79665 29.2687 8.05428C28.9495 9.06233 29.0113 10.4636 29.379 11.3373L29.3986 11.3834L29.4182 11.4301C29.5524 11.7501 29.6961 12.0947 30.053 12.1842C30.0776 12.1598 30.053 12.1726 30.1017 12.1598C30.1881 11.4835 30.2124 10.8322 30.4455 10.303C30.5801 9.97213 30.849 9.73823 31.0333 9.46814C31.1562 9.54173 31.1562 9.76359 31.2295 9.91041C31.389 10.2912 31.5602 10.7087 31.7569 11.0906C32.1604 11.8772 32.6145 12.6397 33.129 13.3277C33.3013 13.5735 33.5458 13.844 33.7663 14.0654C33.8646 14.1511 33.9746 14.2006 34.0484 14.3109H34.0724V14.348C33.7048 14.2124 33.4717 13.832 33.1785 13.6099C32.6265 13.1924 31.9653 12.5654 31.5848 11.9637C31.4257 11.6183 31.2536 11.2873 31.0821 10.9436V10.9188C31.0088 11.017 31.0333 11.1144 30.9967 11.263C30.8375 11.8772 30.96 12.5778 30.4086 12.7987C29.7835 13.0575 29.3172 12.3812 29.1215 12.0739C28.4962 11.0539 28.3249 9.33319 28.7659 7.94416C28.8639 7.63668 28.8772 7.26791 29.0482 7.02241C29.0112 6.80046 28.8402 6.73978 28.7413 6.60379C28.5698 6.37135 28.4229 6.10058 28.2886 5.84244C28.0306 5.3382 27.847 4.73571 27.6512 4.19493C27.5651 3.9741 27.5404 3.75241 27.4546 3.54336C27.3081 3.22428 27.0382 2.90416 26.83 2.62187C26.548 2.21614 25.7268 1.42978 26.0578 0.63035ZM30.0773 3.03852C30.11 3.07135 30.1496 3.10006 30.1905 3.12834L30.2398 3.16221C30.3055 3.20777 30.3692 3.25574 30.4082 3.32107C30.4701 3.40754 30.4816 3.4929 30.5557 3.57955C30.5557 3.87499 30.4701 4.07141 30.2973 4.19382C30.2973 4.19382 30.2855 4.20671 30.2734 4.21875C30.1754 4.02181 30.0896 3.82591 29.9909 3.62915C29.8694 3.4574 29.6976 3.32115 29.5986 3.12491H29.5748V3.10024C29.7227 3.0637 29.8694 3.03852 30.0773 3.03852Z" fill="#00758F"/>
</g>
<defs>
<clipPath id="clip0_52_72">
<rect width="44" height="30" fill="white"/>
</clipPath>
</defs>
</svg>
