<svg width="41" height="52" viewBox="0 0 41 52" fill="none" xmlns="http://www.w3.org/2000/svg">
<g clip-path="url(#clip0_58_32)">
<path d="M20.475 51.8687L3.78964 47.7026L0.0712891 10.1935H40.9287L37.2066 47.6969L20.475 51.8687Z" fill="#264DE4"/>
<path d="M34.0199 45.3087L37.2006 13.2603H20.5V48.6797L34.0199 45.3087Z" fill="#2965F1"/>
<path d="M8.59505 27.1719L9.05341 31.7722H20.4996V27.1719H8.59505ZM7.67383 17.8607L8.13876 22.4611H20.4996V17.8607H7.67383ZM20.4996 39.1195L20.4772 39.1248L14.7808 37.7414L14.4166 34.0725H9.28196L9.9985 41.2957L20.4761 43.9116L20.4996 43.9058V39.1195Z" fill="#EBEBEB"/>
<path d="M9.68652 0H15.8814V2.33006H12.2772V4.66012H15.8817V6.99004H9.68652V0ZM17.1205 0H23.3155V2.02613H19.7112V2.43132H23.3155V7.09145H17.1207V4.96377H20.725V4.55857H17.1203L17.1205 0ZM24.5546 0H30.7496V2.02613H27.1453V2.43132H30.7496V7.09145H24.5546V4.96377H28.1589V4.55857H24.5548L24.5546 0Z" fill="black"/>
<path d="M32.3721 27.1719L33.2954 17.8607H20.4826V22.4611H27.6899L27.2245 27.1719H20.4826V31.7722H26.781L26.1872 37.7385L20.4824 39.1234V43.9094L30.9683 41.2957L31.0452 40.5185L32.2473 28.4072L32.3721 27.1719Z" fill="white"/>
</g>
<defs>
<clipPath id="clip0_58_32">
<rect width="41" height="52" fill="white"/>
</clipPath>
</defs>
</svg>
