<svg width="32" height="49" viewBox="0 0 32 49" fill="none" xmlns="http://www.w3.org/2000/svg">
<g clip-path="url(#clip0_58_20)">
<path d="M8 49C12.416 49 16 45.3413 16 40.8333V32.6666H8C3.584 32.6666 0 36.3253 0 40.8333C0 45.3413 3.584 49 8 49Z" fill="#0ACF83"/>
<path d="M0 24.5C0 19.992 3.584 16.3334 8 16.3334H16V32.6667H8C3.584 32.6667 0 29.008 0 24.5Z" fill="#A259FF"/>
<path d="M0 8.16667C0 3.65867 3.584 0 8 0H16V16.3333H8C3.584 16.3333 0 12.6747 0 8.16667Z" fill="#F24E1E"/>
<path d="M16 0H24C28.416 0 32 3.65867 32 8.16667C32 12.6747 28.416 16.3333 24 16.3333H16V0Z" fill="#FF7262"/>
<path d="M32 24.5C32 29.008 28.416 32.6667 24 32.6667C19.584 32.6667 16 29.008 16 24.5C16 19.992 19.584 16.3334 24 16.3334C28.416 16.3334 32 19.992 32 24.5Z" fill="#1ABCFE"/>
</g>
<defs>
<clipPath id="clip0_58_20">
<rect width="32" height="49" fill="white"/>
</clipPath>
</defs>
</svg>
