<svg width="124" height="68" viewBox="0 0 124 68" fill="none" xmlns="http://www.w3.org/2000/svg">
<g clip-path="url(#clip0_709_64)">
<path d="M36.8876 44.8716L40.656 54.7086C41.5027 56.9421 41.8558 58.5012 41.7144 59.3899C43.7754 54.949 45.2154 50.1095 46.0348 44.8716H50.5661C48.6177 53.3991 46.0478 59.5958 42.858 63.4615C40.3727 66.4405 37.65 67.9298 34.6851 67.9298C33.8946 67.9298 32.9201 67.7377 31.7636 67.3562V65.3006C32.3286 65.3673 32.9915 65.4029 33.7539 65.4029C35.137 65.4029 36.2518 65.0945 37.1 64.479C38.1155 63.729 38.6238 62.8861 38.6238 61.9519C38.6238 61.314 38.2274 60.0048 37.4381 58.0244L32.1874 44.8716H36.8876ZM8.04619 38.8254L14.9485 55.7682H14.9912L21.9359 38.8254H27.6099C28.8523 47.2278 29.5861 54.9157 29.8113 61.8843H25.0277C24.8593 55.3701 24.3931 49.2446 23.6307 43.5067H23.5891L16.3045 61.8843H12.6616L5.42112 43.5067H5.3785C4.84133 49.0173 4.50323 55.1427 4.36228 61.8843H0C0.281906 53.6853 0.987398 45.9997 2.11648 38.8254H8.04619Z" fill="#00758F"/>
<path d="M85.3706 38.4833C92.7954 38.4833 96.5079 42.2995 96.5079 49.9282C96.5079 54.0737 95.3914 57.205 93.1606 59.3204C92.7585 59.7069 92.3141 60.0409 91.8462 60.3503L97.1005 62.4404L97.0954 62.4402L95.2298 65.032L88.3873 61.82C87.2531 62.0903 86.0051 62.2253 84.6453 62.2253C80.9996 62.2253 78.2765 61.3705 76.476 59.6631C74.4998 57.7743 73.5121 54.8008 73.5121 50.7477C73.5121 46.6256 74.6267 43.5062 76.8582 41.3881C78.8907 39.4505 81.7286 38.4833 85.3706 38.4833ZM62.6341 38.5169C65.2877 38.5169 67.7006 39.0881 69.874 40.2266L68.7701 42.2056C66.9104 41.5697 65.0768 41.2503 63.2686 41.2503C61.8014 41.2503 60.6709 41.5344 59.8828 42.1061C59.0904 42.6727 58.6002 43.4018 58.6002 44.2906C58.6002 45.6565 59.8097 46.8409 62.0429 47.8416C62.7745 48.1634 63.5036 48.4888 64.2301 48.818L64.3967 48.8934L64.4802 48.9312L64.6471 49.0066L64.7304 49.0444L64.8971 49.12C66.5875 49.8867 68.1782 50.6185 68.1782 50.6185C70.4112 51.8938 71.5243 53.2534 71.5243 55.4927C71.5243 57.4483 70.6335 59.0536 68.8578 60.3098C67.0809 61.5603 64.6936 62.1873 61.7041 62.1873C58.908 62.1873 56.1982 61.4656 53.5733 60.0343L54.8012 58.0535C57.0601 58.9644 59.1042 59.4194 60.9397 59.4194C62.6612 59.4194 64.0087 59.1101 64.9835 58.4995C65.9564 57.8844 66.5393 57.0265 66.5393 55.9387C66.5393 54.5695 65.3555 53.3991 63.1838 52.4173C62.5041 52.1152 61.8263 51.8101 61.1507 51.5021L60.9843 51.4263C60.6786 51.2874 60.3708 51.1467 60.0693 51.009L59.9058 50.9342C58.4394 50.2631 57.1715 49.6769 57.1715 49.6769C55.0005 48.3993 53.9119 47.0286 53.9119 44.7699C53.9119 42.902 54.7237 41.3922 56.3449 40.2436C57.97 39.0924 60.0666 38.5169 62.6341 38.5169ZM105.234 38.8255V59.0478H114.252V61.8843H100.66V38.8255H105.234ZM119.264 59.0566V59.5359H118.272V61.8818H117.514V59.5359H116.484V59.0566H119.264H119.264ZM121.094 59.0566L122.047 60.9824L122.921 59.0566H123.996V61.8818H123.281V59.7317L122.286 61.8818H121.771L120.774 59.7317H120.735V61.8818H120.059V59.0566H121.095H121.094ZM84.9037 41.3191C80.5283 41.3191 78.3394 44.2242 78.3394 50.0305C78.3394 53.3564 78.9195 55.7682 80.0774 57.2714C81.1498 58.6626 82.8293 59.3568 85.1163 59.3568C89.4917 59.3568 91.6803 56.4291 91.6803 50.5764C91.6803 47.297 91.1003 44.9059 89.9438 43.402C88.8702 42.0139 87.1914 41.3191 84.9039 41.3191H84.9037Z" fill="#F29111"/>
<path d="M73.4356 1.42879C74.887 -1.44046 79.9621 0.732426 81.9316 1.7347C82.4142 1.98546 82.9679 2.51523 83.5213 2.71105C84.3847 2.73833 85.2473 2.79269 86.1122 2.82172C87.7344 3.1284 89.2538 3.37897 90.5321 3.96467C96.4725 6.77917 100.339 9.64725 103.898 14.3846C104.659 15.3881 105.039 16.4739 105.66 17.5598C106.522 19.1784 107.491 20.8774 108.492 22.4079C108.94 23.1335 109.286 23.9403 109.909 24.5531C110.151 24.8333 110.841 24.9159 111.254 25.0832C112.394 25.5581 113.776 25.9185 114.848 26.4758C116.851 27.4804 118.787 28.6775 120.547 29.9031C121.203 30.3761 121.65 31.0458 122.275 31.5462V31.7987C121.721 31.9357 121.168 32.0759 120.614 32.1884C119.405 32.4382 118.335 32.3817 117.162 32.6316C116.437 32.8008 115.538 33.0239 114.778 33.0806L114.848 33.1375C115.295 34.1652 117.714 35.0011 118.82 35.6158C120.164 36.396 121.409 37.3421 122.411 38.4288C122.757 38.706 123.103 38.9584 123.448 39.2349C123.689 39.515 123.756 39.8774 124 40.1272V40.2118C123.73 40.1352 123.536 39.9891 123.352 39.8363L123.243 39.7442C123.133 39.6526 123.022 39.5626 122.896 39.4883C122.134 39.0694 121.377 38.5683 120.614 38.1788C119.304 37.5097 117.783 37.1214 116.437 36.4498C115.677 36.0599 114.951 35.6158 114.226 35.1697C113.568 34.7786 112.844 34.0277 112.431 33.4704C112.188 33.1626 112.154 32.8008 111.876 32.5781C111.926 32.2061 112.349 32.0956 112.777 32.0048L112.875 31.984C113.023 31.9532 113.167 31.9224 113.293 31.8817C115.088 31.2683 117.229 31.0458 119.993 31.1015C119.889 30.5431 118.162 29.8473 117.611 29.513C116.504 28.8712 115.332 28.2015 114.158 27.6174C113.536 27.3115 112.463 27.0882 111.774 26.8382C110.841 26.5315 108.769 26.225 108.252 25.6409C107.374 24.7201 106.743 23.6217 106.131 22.5123L105.964 22.2095C105.909 22.1086 105.853 22.0077 105.797 21.9069C105.074 20.5709 104.175 19.178 103.449 17.81C103.07 17.1426 102.896 16.5569 102.48 15.9169C99.96 11.9893 96.2296 8.7009 91.7067 6.38831C90.2204 5.63583 88.5631 4.93946 86.7336 4.46619C85.6968 4.21426 84.4525 4.35357 83.3479 4.16029H82.6208C82.0003 4.01961 81.4823 3.49042 80.9982 3.21141C79.9289 2.62727 78.858 2.23505 77.5792 1.81828C77.1312 1.65111 75.8517 1.26181 75.4051 1.5683C75.1285 1.62422 74.9883 1.7082 74.9202 1.93149C74.6451 2.26467 74.887 2.76658 75.0583 3.07385C75.577 3.96428 76.3017 4.49347 76.9594 5.24595C77.5446 5.91329 78.2714 6.66577 78.6862 7.39136C79.5814 8.95107 79.9982 10.6791 80.8277 12.2387C81.1352 12.8251 81.6218 13.4925 82.0696 14.0215C82.4491 14.4413 83.1391 14.7449 83.3479 15.2764C83.7639 15.8337 82.725 17.6724 82.4845 18.2564C81.5847 20.5413 81.7591 23.7174 82.7952 25.698L82.8504 25.8024L82.9056 25.9082C83.2839 26.6336 83.6889 27.4147 84.6947 27.6176C84.7639 27.5622 84.6947 27.5913 84.832 27.5622C85.0754 26.0292 85.1439 24.5529 85.8007 23.3534C86.1802 22.6035 86.9381 22.0733 87.4575 21.4611C87.8039 21.6279 87.8039 22.1308 88.0102 22.4636C88.4597 23.3267 88.9424 24.2731 89.4965 25.1388C90.6338 26.9216 91.9136 28.65 93.3635 30.2096C93.8491 30.7666 94.5381 31.3798 95.1596 31.8815C95.4364 32.0758 95.7464 32.188 95.9545 32.438H96.0223V32.5221C94.9862 32.2149 94.3294 31.3525 93.503 30.849C91.9472 29.9027 90.0841 28.4815 89.0117 27.1178C88.5631 26.3349 88.0783 25.5846 87.5949 24.8056V24.7493C87.3883 24.9718 87.4575 25.1928 87.3541 25.5294C86.9056 26.9216 87.251 28.5097 85.6968 29.0105C83.9352 29.597 82.6211 28.0641 82.0696 27.3676C80.3074 25.0556 79.8248 21.1552 81.0674 18.0068C81.3435 17.3098 81.3811 16.4739 81.863 15.9175C81.7589 15.4144 81.2769 15.2768 80.9982 14.9686C80.5148 14.4417 80.1009 13.828 79.7223 13.2429C78.9953 12.0999 78.478 10.7343 77.926 9.50852C77.6833 9.00797 77.6138 8.50547 77.3719 8.03161C76.9592 7.30836 76.1985 6.58276 75.6117 5.9429C74.8171 5.02325 72.5027 3.24083 73.4356 1.42879ZM84.7632 6.8873C84.8555 6.96173 84.9669 7.02681 85.0822 7.09091L85.2212 7.16768C85.4065 7.27095 85.5859 7.37967 85.6959 7.52775C85.8702 7.72376 85.9027 7.91724 86.1115 8.11364C86.1115 8.78331 85.8702 9.22853 85.3832 9.50599C85.3832 9.50599 85.35 9.53521 85.3159 9.56249C85.0398 9.11611 84.7978 8.67206 84.5198 8.22607C84.1774 7.83677 83.6932 7.52795 83.4142 7.08312H83.3471V7.0272C83.7639 6.94439 84.1774 6.8873 84.7632 6.8873Z" fill="#00758F"/>
</g>
<defs>
<clipPath id="clip0_709_64">
<rect width="124" height="68" fill="white"/>
</clipPath>
</defs>
</svg>
