<svg width="121" height="76" viewBox="0 0 121 76" fill="none" xmlns="http://www.w3.org/2000/svg">
<g clip-path="url(#clip0_748_7)">
<path d="M59.817 75.7807C59.4074 75.7807 59.0251 75.6689 58.6699 75.4731L55.0373 73.2633C54.4909 72.9554 54.7641 72.8436 54.9281 72.7877C55.6654 72.536 55.802 72.4798 56.5668 72.0325C56.6488 71.9764 56.7582 72.0045 56.84 72.0604L59.6261 73.7667C59.7352 73.8227 59.8718 73.8227 59.9536 73.7667L70.8519 67.3048C70.9611 67.2489 71.0159 67.1368 71.0159 66.9972V54.1014C71.0159 53.9612 70.9611 53.8497 70.8519 53.7935L59.9536 47.3596C59.8444 47.3035 59.7078 47.3035 59.6261 47.3596L48.7278 53.7935C48.6186 53.8494 48.5638 53.9893 48.5638 54.1011V66.9969C48.5638 67.109 48.6186 67.2487 48.7278 67.3048L51.705 69.0671C53.3166 69.9062 54.3271 68.9272 54.3271 67.9481V55.2201C54.3271 55.0523 54.4637 54.8844 54.6549 54.8844H56.0478C56.2118 54.8844 56.3756 55.0243 56.3756 55.2201V67.9481C56.3756 70.158 55.201 71.4449 53.1526 71.4449C52.5244 71.4449 52.0328 71.4449 50.6397 70.7454L47.7718 69.0671C47.0617 68.6476 46.6247 67.8642 46.6247 67.025V54.1292C46.6247 53.2901 47.0617 52.5066 47.7718 52.0871L58.6699 45.6252C59.3529 45.2336 60.2816 45.2336 60.9644 45.6252L71.8624 52.0871C72.5726 52.5066 73.0098 53.2901 73.0098 54.1292V67.025C73.0098 67.8642 72.5726 68.6476 71.8624 69.0671L60.9644 75.529C60.6092 75.697 60.1994 75.7807 59.817 75.7807ZM63.1769 66.9132C58.3971 66.9132 57.4138 64.6753 57.4138 62.7731C57.4138 62.6051 57.5504 62.4374 57.7416 62.4374H59.1619C59.3257 62.4374 59.4623 62.5492 59.4623 62.7172C59.6809 64.1997 60.309 64.927 63.2043 64.927C65.4986 64.927 66.4822 64.3955 66.4822 63.1367C66.4822 62.4093 66.2087 61.8781 62.6307 61.5143C59.6535 61.2064 57.7962 60.5352 57.7962 58.1015C57.7962 55.8356 59.6537 54.4928 62.7673 54.4928C66.2633 54.4928 67.9843 55.7238 68.2029 58.4089C68.2029 58.4932 68.1755 58.5769 68.1209 58.6609C68.066 58.7168 67.9843 58.7727 67.9023 58.7727H66.4819C66.3453 58.7727 66.2087 58.6609 66.1816 58.521C65.8538 56.9826 65.007 56.4789 62.7673 56.4789C60.2544 56.4789 59.9538 57.3742 59.9538 58.0454C59.9538 58.8567 60.309 59.1084 63.6959 59.5559C67.0555 60.0037 68.6398 60.6471 68.6398 63.0527C68.6124 65.5144 66.6459 66.9132 63.1769 66.9132Z" fill="#539E43"/>
<path d="M26.0027 25.3443C26.0027 24.8409 25.7295 24.365 25.2925 24.1133L13.7115 17.2878C13.5201 17.1758 13.3017 17.1198 13.0833 17.0918H12.9739C12.7555 17.0918 12.5369 17.1758 12.3458 17.2878L0.764731 24.1133C0.327524 24.365 0.0545654 24.8406 0.0545654 25.3443L0.0819795 43.6949C0.0819795 43.9466 0.218577 44.1984 0.436944 44.3104C0.655548 44.4503 0.928507 44.4503 1.11993 44.3104L8.00299 40.2822C8.43996 40.0305 8.71315 39.5549 8.71315 39.0514V30.4634C8.71315 29.96 8.98611 29.4844 9.42332 29.2327L12.3458 27.4982C12.5644 27.3583 12.8101 27.3022 13.0559 27.3022C13.3017 27.3022 13.5475 27.3583 13.7389 27.4982L16.6613 29.2327C17.0985 29.4844 17.3715 29.9597 17.3715 30.4634V39.0514C17.3715 39.5549 17.6447 40.0305 18.0817 40.2822L24.9647 44.3104C25.0711 44.379 25.1942 44.4154 25.3198 44.4154C25.4455 44.4154 25.5686 44.379 25.6749 44.3104C25.8935 44.1984 26.0301 43.9466 26.0301 43.6949L26.0027 25.3443ZM81.6681 0.0839867C81.4498 -0.028077 81.1766 -0.028077 80.9851 0.0839867C80.7668 0.223885 80.6302 0.447528 80.6302 0.699248V18.8824C80.6302 19.0501 80.5484 19.2178 80.3844 19.3299C80.2206 19.4136 80.0566 19.4136 79.8928 19.3299L76.9976 17.6235C76.7853 17.4998 76.5452 17.4347 76.301 17.4347C76.0567 17.4347 75.8167 17.4998 75.6044 17.6235L64.0234 24.4771C63.5864 24.7288 63.3132 25.2044 63.3132 25.7078V39.3869C63.3132 39.8903 63.5864 40.3662 64.0234 40.6179L75.6044 47.4714C75.8167 47.5952 76.0567 47.6603 76.301 47.6603C76.5452 47.6603 76.7853 47.5952 76.9976 47.4714L88.5786 40.6179C89.0156 40.3662 89.2888 39.8906 89.2888 39.3869V5.28708C89.2888 4.75557 89.0156 4.2802 88.5786 4.02824L81.6681 0.0839867ZM80.603 34.8833C80.603 35.0232 80.5484 35.135 80.439 35.1909L76.4786 37.5406C76.4233 37.5682 76.3625 37.5826 76.301 37.5826C76.2394 37.5826 76.1787 37.5682 76.1234 37.5406L72.163 35.1909C72.0536 35.135 71.999 34.9951 71.999 34.8833V30.1836C71.999 30.0437 72.0536 29.9319 72.163 29.876L76.1234 27.526C76.1787 27.4984 76.2394 27.484 76.301 27.484C76.3625 27.484 76.4233 27.4984 76.4786 27.526L80.439 29.876C80.5484 29.9317 80.603 30.0718 80.603 30.1836V34.8833ZM120.208 30.0718C120.645 29.8201 120.891 29.3445 120.891 28.8408V25.512C120.891 25.0086 120.618 24.533 120.208 24.2813L108.709 17.4558C108.497 17.332 108.256 17.2669 108.012 17.2669C107.768 17.2669 107.528 17.332 107.316 17.4558L95.7346 24.3091C95.2974 24.5608 95.0244 25.0364 95.0244 25.5399V39.2191C95.0244 39.7226 95.2976 40.1982 95.7346 40.4499L107.234 47.1636C107.671 47.4153 108.19 47.4153 108.6 47.1636L115.564 43.1917C115.783 43.0797 115.92 42.8279 115.92 42.5762C115.92 42.3245 115.783 42.0728 115.564 41.9607L103.929 35.1072C103.71 34.9673 103.574 34.7436 103.574 34.4919V30.2119C103.574 29.9602 103.71 29.7085 103.929 29.5964L107.561 27.4704C107.668 27.4018 107.791 27.3655 107.916 27.3655C108.042 27.3655 108.165 27.4018 108.272 27.4704L111.904 29.5964C112.123 29.7363 112.259 29.96 112.259 30.2119V33.5688C112.259 33.8205 112.396 34.0722 112.615 34.184C112.721 34.2526 112.844 34.289 112.97 34.289C113.095 34.289 113.218 34.2526 113.325 34.184L120.208 30.0718Z" fill="#333333"/>
<path d="M107.835 29.4282C107.875 29.4008 107.923 29.3862 107.971 29.3862C108.02 29.3862 108.067 29.4008 108.108 29.4282L110.32 30.743C110.402 30.7991 110.457 30.8829 110.457 30.9947V33.6244C110.457 33.7362 110.402 33.8202 110.32 33.8761L108.108 35.1909C108.067 35.2183 108.02 35.2329 107.971 35.2329C107.923 35.2329 107.875 35.2183 107.835 35.1909L105.622 33.8761C105.54 33.8202 105.486 33.7362 105.486 33.6244V30.9949C105.486 30.8829 105.54 30.7989 105.622 30.7432L107.835 29.4282Z" fill="#539E43"/>
<path d="M45.3681 17.5117C45.1559 17.388 44.9159 17.3229 44.6717 17.3229C44.4275 17.3229 44.1875 17.388 43.9752 17.5117L32.4762 24.3089C32.039 24.5606 31.7932 25.0362 31.7932 25.5397V39.163C31.7932 39.6665 32.0664 40.1421 32.4762 40.3938L43.9752 47.1914C44.1875 47.3152 44.4275 47.3802 44.6717 47.3802C44.9159 47.3802 45.1559 47.3152 45.3681 47.1914L56.8674 40.3938C57.3044 40.1421 57.5504 39.6665 57.5504 39.163V25.5399C57.5504 25.0365 57.2769 24.5609 56.8674 24.3091L45.3681 17.5117Z" fill="url(#paint0_linear_748_7)"/>
<mask id="mask0_748_7" style="mask-type:luminance" maskUnits="userSpaceOnUse" x="31" y="17" width="27" height="31">
<path d="M45.3681 17.5117C45.1559 17.388 44.9159 17.3229 44.6717 17.3229C44.4275 17.3229 44.1875 17.388 43.9752 17.5117L32.4762 24.3089C32.039 24.5606 31.7932 25.0362 31.7932 25.5397V39.163C31.7932 39.6665 32.0664 40.1421 32.4762 40.3938L43.9752 47.1914C44.1875 47.3152 44.4275 47.3802 44.6717 47.3802C44.9159 47.3802 45.1559 47.3152 45.3681 47.1914L56.8674 40.3938C57.3044 40.1421 57.5504 39.6665 57.5504 39.163V25.5399C57.5504 25.0365 57.2769 24.5609 56.8674 24.3091L45.3681 17.5117Z" fill="white"/>
</mask>
<g mask="url(#mask0_748_7)">
<path d="M56.8946 24.3092L45.341 17.5118C45.2274 17.4531 45.1084 17.4062 44.9858 17.3719L32.039 40.0867C32.1462 40.2208 32.2758 40.3344 32.4216 40.4224L43.9752 47.22C44.303 47.4159 44.6854 47.4718 45.0404 47.3597L57.1952 24.5892C57.1132 24.4774 57.0038 24.3929 56.8946 24.3092Z" fill="url(#paint1_linear_748_7)"/>
</g>
<mask id="mask1_748_7" style="mask-type:luminance" maskUnits="userSpaceOnUse" x="31" y="17" width="27" height="31">
<path d="M45.3681 17.5117C45.1559 17.388 44.9159 17.3229 44.6717 17.3229C44.4275 17.3229 44.1875 17.388 43.9752 17.5117L32.4762 24.3089C32.039 24.5606 31.7932 25.0362 31.7932 25.5397V39.163C31.7932 39.6665 32.0664 40.1421 32.4762 40.3938L43.9752 47.1914C44.1875 47.3152 44.4275 47.3802 44.6717 47.3802C44.9159 47.3802 45.1559 47.3152 45.3681 47.1914L56.8674 40.3938C57.3044 40.1421 57.5504 39.6665 57.5504 39.163V25.5399C57.5504 25.0365 57.2769 24.5609 56.8674 24.3091L45.3681 17.5117Z" fill="white"/>
</mask>
<g mask="url(#mask1_748_7)">
<path fill-rule="evenodd" clip-rule="evenodd" d="M56.922 40.394C57.2498 40.1982 57.4955 39.8625 57.605 39.499L44.9309 17.3438C44.6031 17.2878 44.2479 17.3157 43.9478 17.5115L32.476 24.2813L44.8489 47.3875C45.0289 47.3573 45.2036 47.3008 45.3679 47.2197L56.922 40.394Z" fill="url(#paint2_linear_748_7)"/>
<path fill-rule="evenodd" clip-rule="evenodd" d="M56.922 40.3941L45.3956 47.1917C45.2328 47.2767 45.0575 47.3334 44.8766 47.3595L45.0952 47.7791L57.8779 40.1985V40.0305L57.5502 39.4709C57.4956 39.8626 57.2498 40.1983 56.922 40.3941Z" fill="url(#paint3_linear_748_7)"/>
<path fill-rule="evenodd" clip-rule="evenodd" d="M56.922 40.3941L45.3956 47.1917C45.2328 47.2767 45.0575 47.3334 44.8766 47.3595L45.0952 47.7791L57.8779 40.1985V40.0305L57.5502 39.4709C57.4956 39.8626 57.2498 40.1983 56.922 40.3941Z" fill="url(#paint4_linear_748_7)"/>
</g>
</g>
<defs>
<linearGradient id="paint0_linear_748_7" x1="1788.12" y1="542.935" x2="484.456" y2="2543.05" gradientUnits="userSpaceOnUse">
<stop stop-color="#41873F"/>
<stop offset="0.3288" stop-color="#418B3D"/>
<stop offset="0.6352" stop-color="#419637"/>
<stop offset="0.9319" stop-color="#3FA92D"/>
<stop offset="1" stop-color="#3FAE2A"/>
</linearGradient>
<linearGradient id="paint1_linear_748_7" x1="1120.72" y1="1674.92" x2="4311.25" y2="-17.6077" gradientUnits="userSpaceOnUse">
<stop offset="0.1376" stop-color="#41873F"/>
<stop offset="0.4032" stop-color="#54A044"/>
<stop offset="0.7136" stop-color="#66B848"/>
<stop offset="0.9081" stop-color="#6CC04A"/>
</linearGradient>
<linearGradient id="paint2_linear_748_7" x1="-77.8153" y1="1520.69" x2="2583.05" y2="1520.69" gradientUnits="userSpaceOnUse">
<stop offset="0.09192" stop-color="#6CC04A"/>
<stop offset="0.2864" stop-color="#66B848"/>
<stop offset="0.5968" stop-color="#54A044"/>
<stop offset="0.8624" stop-color="#41873F"/>
</linearGradient>
<linearGradient id="paint3_linear_748_7" x1="-1305.46" y1="457.166" x2="1355.37" y2="457.166" gradientUnits="userSpaceOnUse">
<stop offset="0.09192" stop-color="#6CC04A"/>
<stop offset="0.2864" stop-color="#66B848"/>
<stop offset="0.5968" stop-color="#54A044"/>
<stop offset="0.8624" stop-color="#41873F"/>
</linearGradient>
<linearGradient id="paint4_linear_748_7" x1="1743.02" y1="-1714.13" x2="1037.18" y2="1897.23" gradientUnits="userSpaceOnUse">
<stop stop-color="#41873F"/>
<stop offset="0.3288" stop-color="#418B3D"/>
<stop offset="0.6352" stop-color="#419637"/>
<stop offset="0.9319" stop-color="#3FA92D"/>
<stop offset="1" stop-color="#3FAE2A"/>
</linearGradient>
<clipPath id="clip0_748_7">
<rect width="121" height="76" fill="white"/>
</clipPath>
</defs>
</svg>
