<svg width="85" height="82" viewBox="0 0 85 82" fill="none" xmlns="http://www.w3.org/2000/svg">
<path d="M42.5 36.3875C45.9108 36.3875 48.6758 33.7201 48.6758 30.4297C48.6758 27.1393 45.9108 24.4719 42.5 24.4719C39.0892 24.4719 36.3242 27.1393 36.3242 30.4297C36.3242 33.7201 39.0892 36.3875 42.5 36.3875Z" fill="#61DAFB"/>
<path d="M42.5 52.3391C47.3477 56.8875 52.1289 59.5781 55.9805 59.5781C57.2422 59.5781 58.4375 59.3219 59.4336 58.7453C62.8867 56.8234 64.1484 52.0187 62.9531 45.1641C62.7539 43.9469 62.4883 42.7297 62.1562 41.4484C63.4844 41.0641 64.6797 40.6797 65.875 40.2953C72.582 37.7969 76.3008 34.3375 76.3008 30.5578C76.3008 26.7141 72.582 23.2547 65.875 20.8203C64.6797 20.3719 63.4844 19.9875 62.1562 19.6672C62.4883 18.3859 62.7539 17.1687 62.9531 15.9516C64.082 8.96874 62.8203 4.09999 59.3672 2.17812C58.3711 1.60156 57.1758 1.34531 55.9141 1.34531C52.1289 1.34531 47.2813 4.03593 42.4336 8.58437C37.6523 4.03593 32.8711 1.34531 29.0195 1.34531C27.7578 1.34531 26.5625 1.60156 25.5664 2.17812C22.1133 4.09999 20.8516 8.90468 22.0469 15.7594C22.2461 16.9766 22.5117 18.1937 22.8438 19.475C21.5156 19.8594 20.3203 20.2437 19.125 20.6281C12.418 23.1266 8.69922 26.5859 8.69922 30.3656C8.69922 34.2094 12.418 37.6687 19.125 40.1031C20.3203 40.5516 21.5156 40.9359 22.8438 41.2562C22.5117 42.5375 22.2461 43.7547 22.0469 44.9719C20.918 51.8266 22.1797 56.6953 25.5664 58.5531C26.5625 59.1297 27.7578 59.3859 29.0195 59.3859C32.8711 59.5141 37.6523 56.8234 42.5 52.3391ZM38.7813 43.6906C39.9766 43.7547 41.2383 43.7547 42.5 43.7547C43.7617 43.7547 45.0234 43.7547 46.2188 43.6906C45.0234 45.2281 43.7617 46.6375 42.5 47.9828C41.2383 46.6375 39.9766 45.2281 38.7813 43.6906ZM30.5469 37.0922C31.2109 38.1812 31.8086 39.2062 32.5391 40.2312C30.4805 39.975 28.5547 39.6547 26.6953 39.2703C27.293 37.5406 27.957 35.7469 28.7539 33.9531C29.2852 34.9781 29.8828 36.0672 30.5469 37.0922ZM26.6953 21.6531C28.5547 21.2687 30.4805 20.9484 32.5391 20.6922C31.875 21.7172 31.2109 22.7422 30.5469 23.8312C29.8828 24.9203 29.2852 25.9453 28.7539 27.0344C27.8906 25.1766 27.2266 23.3828 26.6953 21.6531ZM30.3477 30.4297C31.2109 28.7 32.1406 26.9703 33.2031 25.2406C34.1992 23.575 35.3281 21.9094 36.457 20.2437C38.4492 20.1156 40.4414 20.0516 42.5 20.0516C44.625 20.0516 46.6172 20.1156 48.543 20.2437C49.7383 21.9094 50.8008 23.575 51.7969 25.2406C52.8594 26.9703 53.7891 28.7 54.6523 30.4297C53.7891 32.1594 52.8594 33.8891 51.7969 35.6187C50.8008 37.2844 49.6719 38.95 48.543 40.6156C46.5508 40.7437 44.5586 40.8078 42.5 40.8078C40.375 40.8078 38.3828 40.7437 36.457 40.6156C35.2617 38.95 34.1992 37.2844 33.2031 35.6187C32.1406 33.8891 31.2109 32.1594 30.3477 30.4297ZM56.3125 26.9703L54.5195 23.7672C53.8555 22.6781 53.2578 21.6531 52.5273 20.6281C54.5859 20.8844 56.5117 21.2047 58.3711 21.5891C57.7734 23.3828 57.1094 25.1766 56.3125 26.9703ZM56.3125 33.8891C57.1094 35.6828 57.7734 37.4766 58.3711 39.2062C56.5117 39.5906 54.5859 39.9109 52.5273 40.1672C53.1914 39.1422 53.8555 38.1172 54.5195 37.0281C55.1172 36.0672 55.7148 34.9781 56.3125 33.8891ZM57.8398 56.1187C57.3086 56.4391 56.6445 56.5672 55.9141 56.5672C52.6602 56.5672 48.6094 54.0047 44.625 50.1609C46.5508 48.175 48.4102 45.9328 50.2695 43.4344C53.3906 43.1781 56.3789 42.7297 59.168 42.0891C59.5 43.2422 59.6992 44.3953 59.8984 45.5484C60.8281 50.9937 60.0977 54.9016 57.8398 56.1187ZM61.293 22.3578C68.7305 24.4078 73.1797 27.5469 73.1797 30.4297C73.1797 32.9281 70.125 35.4266 64.7461 37.4125C63.6836 37.7969 62.4883 38.1812 61.293 38.5016C60.4297 35.875 59.3672 33.1844 58.0391 30.4297C59.3672 27.675 60.4961 24.9844 61.293 22.3578ZM55.9805 4.29218C56.7109 4.29218 57.3086 4.42031 57.9062 4.74062C60.0977 5.95781 60.8945 9.80156 59.9648 15.3109C59.7656 16.4 59.5 17.5531 59.2344 18.7703C56.4453 18.1937 53.457 17.7453 50.3359 17.425C48.543 14.9266 46.6172 12.6844 44.6914 10.6984C48.6758 6.91874 52.7266 4.29218 55.9805 4.29218ZM46.2188 17.1687C45.0234 17.1047 43.7617 17.1047 42.5 17.1047C41.2383 17.1047 39.9766 17.1047 38.7813 17.1687C39.9766 15.6312 41.2383 14.2219 42.5 12.8766C43.7617 14.2219 45.0234 15.6953 46.2188 17.1687ZM27.1602 4.74062C27.6914 4.42031 28.3555 4.29218 29.0859 4.29218C32.3398 4.29218 36.3906 6.85468 40.375 10.6984C38.4492 12.6844 36.5898 14.9266 34.7305 17.425C31.6094 17.6812 28.6211 18.1297 25.832 18.7703C25.5 17.6172 25.3008 16.4641 25.1016 15.3109C24.1719 9.86562 24.9023 6.02187 27.1602 4.74062ZM23.707 38.5016C16.2695 36.4516 11.8203 33.3125 11.8203 30.4297C11.8203 27.9312 14.875 25.4328 20.2539 23.4469C21.3164 23.0625 22.5117 22.6781 23.707 22.3578C24.5703 24.9844 25.6328 27.675 26.9609 30.4297C25.6328 33.1844 24.5039 35.9391 23.707 38.5016ZM25.1016 45.5484C25.3008 44.4594 25.5664 43.3062 25.832 42.0891C28.6211 42.6656 31.6094 43.1141 34.7305 43.4344C36.5234 45.9328 38.4492 48.175 40.375 50.1609C36.3906 53.9406 32.3398 56.5672 29.0859 56.5672C28.3555 56.5672 27.7578 56.4391 27.1602 56.1187C24.9023 54.9016 24.1719 50.9937 25.1016 45.5484ZM22.3125 71.9422C23.7734 70.2125 23.8398 68.2906 23.043 66.3687C22.2461 64.4469 20.5859 63.55 18.5273 63.4859C16.0703 63.4219 13.5469 63.4859 11.0898 63.4859H10.625V80.0781H12.6172V73.8H15.7383C16.1367 73.8 16.4687 73.9281 16.668 74.2484L20.6523 80.2062C20.7188 80.3344 20.918 80.5266 21.0508 80.5266H23.6406C22.0469 78.1562 20.5195 75.9141 18.9258 73.6078C20.3203 73.4156 21.5156 72.9672 22.3125 71.9422ZM12.6172 71.8141V65.4719H13.3477C14.875 65.4719 16.4688 65.4078 17.9961 65.5359C19.7891 65.6 21.0508 66.9453 21.0508 68.675C21.0508 70.4047 19.5898 71.75 17.7969 71.8141C16.2031 71.8781 14.6094 71.8141 12.6172 71.8141ZM38.3164 72.6469C37.2539 68.1625 33.0039 67.0094 29.75 68.4187C27.2266 69.5078 26.0977 71.6219 26.0313 74.2484C25.9648 76.2344 26.5625 78.0281 28.1563 79.3734C29.9492 80.9109 32.1406 81.1031 34.3984 80.7187C35.6602 80.4625 36.7891 79.8859 37.6523 78.9891C37.3203 78.5406 36.9883 78.0922 36.6562 77.7078C34.7969 79.2453 32.7383 79.7578 30.4805 78.7328C29.0195 78.0281 28.2891 76.2984 28.1563 75.0172H38.4492V74.1844C38.5156 73.6078 38.4492 73.0953 38.3164 72.6469ZM28.2891 73.6719C28.0898 71.75 30.082 69.7 32.2734 69.7C34.7969 69.6359 36.3906 71.1094 36.457 73.6719H28.2891ZM48.6758 68.0984C47.6797 67.9062 46.6172 67.8422 45.6211 67.9062C44.0273 68.0344 42.6328 68.7391 41.5039 69.8922C41.8359 70.3406 42.1016 70.7891 42.5 71.3016C42.6328 71.1734 42.7656 71.0453 42.8984 70.9812C43.9609 70.0203 45.2227 69.5078 46.75 69.6359C47.9453 69.7 49.0742 70.0844 49.4063 71.2375C49.6719 72.1344 49.6055 73.0953 49.6719 74.0562C49.4727 74.0562 49.4063 73.9922 49.3398 73.9281C47.7461 72.6469 45.9531 72.3906 44.0273 72.8391C42.2344 73.2875 41.1055 74.6328 40.9727 76.3625C40.8398 78.3484 41.7695 79.8219 43.5625 80.5266C44.6914 80.975 45.9531 80.975 47.1484 80.7187C48.0781 80.5266 48.4766 80.0141 49.8047 79.3094V80.1422H51.6641C51.6641 77.5797 51.7305 74.4406 51.6641 71.4937C51.6641 69.6359 50.5352 68.4828 48.6758 68.0984ZM49.6055 76.1703C49.5391 76.3625 49.6055 76.5547 49.6055 76.7469C49.6055 78.0922 49.2734 78.5406 47.9453 79.0531C47.0156 79.3734 46.0195 79.5016 45.0234 79.1812C43.8945 78.8609 43.0977 77.9 43.0977 76.8109C43.0313 75.7219 43.7617 74.6328 44.8906 74.3125C46.418 73.8 47.8125 74.1203 49.0742 75.0172C49.4727 75.3375 49.7383 75.6578 49.6055 76.1703ZM59.9648 69.8281C61.6914 69.3156 63.2852 69.6359 64.4805 71.0453L64.6797 71.1734C65.1445 70.7891 65.543 70.4047 66.0742 69.9562C65.875 69.7641 65.8086 69.6359 65.6758 69.4437C63.75 67.4578 59.9648 67.2016 57.6406 68.8031C54.3867 71.1094 54.4531 75.5937 56.0469 77.9641C57.5742 80.2062 59.7656 80.975 62.3555 80.6547C63.8828 80.4625 65.1445 79.7578 66.1406 78.5406C65.6758 78.1562 65.2109 77.7719 64.7461 77.3234C64.6133 77.4516 64.5469 77.5156 64.4805 77.6437C62.6875 79.5656 59.6992 79.3734 58.1055 77.3234C57.1758 76.1062 56.9766 74.6969 57.2422 73.2875C57.375 71.6859 58.2383 70.4047 59.9648 69.8281ZM73.7773 78.5406C73.6445 78.6047 73.5781 78.6687 73.5781 78.6687C73.0469 79.0531 72.5156 79.1172 71.918 78.925C71.3203 78.6687 71.2539 78.1562 71.1875 77.6437V70.3406C71.1875 70.2125 71.1875 70.4687 71.2539 69.8281H73.7773V67.9062H71.1211V64.7031H69.1289V68.1625H67.4023C67.2695 68.1625 67.0703 68.2906 67.0703 68.4187C67.0039 68.8672 67.0703 69.1875 67.0703 69.8281H69.1953V78.0281C69.1953 79.0531 69.4609 79.95 70.3906 80.4625C71.3867 81.0391 73.3125 80.9109 74.1758 80.2062C74.3086 80.1422 74.375 79.8859 74.375 79.8219C74.1758 79.4375 73.9766 78.9891 73.7773 78.5406Z" fill="#61DAFB"/>
</svg>
