<svg width="81" height="76" viewBox="0 0 81 76" fill="none" xmlns="http://www.w3.org/2000/svg">
<path fill-rule="evenodd" clip-rule="evenodd" d="M51.9716 44.6512C51.6381 44.8804 51.4008 45.0615 51.1452 45.2153C50.0839 45.8577 49.0335 46.5174 47.9463 47.1188C47.2578 47.5 46.4813 47.4674 45.7466 47.2275C45.0347 46.9959 44.326 46.7347 43.6609 46.4057C42.5946 45.8779 42.2567 44.8774 41.9257 43.8769C41.3707 42.2008 42.1219 40.7663 42.8332 39.3205C42.9648 39.0557 43.1445 38.8123 43.2913 38.5528C43.5008 38.1817 43.3831 37.9875 42.93 38.0137C42.6675 38.0288 42.4108 38.093 42.1751 38.2025C40.1849 39.1519 38.4528 40.4005 37.1296 42.1082C36.2197 43.2844 35.6602 44.6067 35.2875 46.0121C35.061 46.8665 34.3845 47.3213 33.6669 47.1723C32.6569 46.9621 31.9387 45.5543 32.4013 44.6904C32.4747 44.5526 32.5398 44.406 32.6436 44.289C33.7947 42.9905 34.1984 41.3844 34.7231 39.8305C35.03 38.9203 35.3318 38.0071 35.5944 37.085C35.7223 36.6356 35.8792 36.1772 35.6261 35.6939C35.4704 35.394 35.7286 35.1156 35.988 35.0883C36.5759 35.0259 37.2208 34.9434 37.7612 35.1061C38.3548 35.2854 38.4041 35.9516 38.5041 36.4747C38.5636 36.7852 38.5155 37.1141 38.5155 37.541C38.7541 37.4383 38.9249 37.3783 39.0825 37.294C39.9805 36.8143 40.8531 36.2894 41.777 35.8595C42.6579 35.4498 43.559 35.6719 44.3867 36.0549C44.8044 36.2484 45.0202 36.2265 45.3435 35.8868C46.0618 35.131 46.8091 34.3864 47.6337 33.7363C48.3178 33.1978 49.2088 33.038 50.0998 33.098C50.6838 33.1366 51.2705 33.2381 51.8381 33.3735C52.5013 33.5332 52.9208 34.0925 52.9822 34.7237C53.105 36.0074 52.5589 37.1005 51.7773 38.0659C49.9181 40.3643 47.8115 42.4329 45.1448 43.9345C44.7765 44.1424 44.7481 44.3899 44.9183 44.7118C45.179 45.201 45.808 45.4112 46.3852 45.2443C48.0153 44.7741 49.2771 43.757 50.5794 42.7951C51.2749 42.2815 52.0172 41.8125 52.6418 41.2318C52.993 40.9058 53.1613 40.4005 53.3885 39.9641C54.2535 38.304 55.0597 36.6148 55.9786 34.9814C56.9436 33.2631 58.0238 31.6023 59.0313 29.9048C59.3091 29.4358 59.5122 28.9269 59.7388 28.4323C60.0697 27.7133 60.588 27.2692 61.4815 27.3446C61.6448 27.3582 61.8112 27.3416 61.9764 27.3422C63.1382 27.344 63.7717 28.2839 63.2009 29.2446C62.6896 30.1043 62.096 30.9207 61.5195 31.7448C59.835 34.1543 58.0966 36.5358 56.7848 39.1507C56.1581 40.3892 55.6029 41.6585 55.1218 42.9531C54.8914 43.5783 54.8921 44.2872 54.8516 44.9617C54.8262 45.4029 55.1559 45.5495 55.5287 45.2556C56.1431 44.7705 56.6975 44.2201 57.2999 43.722C57.8144 43.2968 58.3928 42.9388 58.8807 42.4911C59.1332 42.259 59.2977 41.9146 59.4217 41.594C60.3247 39.27 61.4822 37.0607 62.7516 34.8983C63.6635 33.3456 64.6089 31.809 65.5182 30.2539C65.9486 29.5177 66.3061 28.7434 66.744 28.0102C67.0161 27.5548 67.4483 27.2864 68.0514 27.3458C68.2476 27.3653 68.4488 27.3612 68.645 27.3404C69.9865 27.1961 70.4067 28.4656 69.9239 29.2481C69.5208 29.9001 69.0829 30.533 68.6437 31.1636C66.6908 33.9631 64.6525 36.7175 63.18 39.7795C62.601 40.9824 62.1302 42.2364 61.6891 43.4904C61.5296 43.9446 61.5746 44.4689 61.5752 44.9617C61.5752 45.407 61.8732 45.54 62.2504 45.2426C62.8528 44.7676 63.4072 44.2403 63.9925 43.7439L65.3955 42.5962C65.5113 42.4988 65.6467 42.3653 65.6663 42.234C66.0333 39.8288 67.2895 37.8338 68.9171 36.0139C69.4436 35.4243 69.9707 34.824 70.575 34.3087C71.7926 33.272 73.3721 33.5136 74.2878 34.3324C74.5459 34.5634 74.6909 34.9208 74.8415 35.2391C75.1553 35.8952 75.3832 36.046 76.1609 36.0436C77.0816 36.0406 78.0036 36.0092 78.9212 36.0561C79.2813 36.0745 79.6603 36.2247 79.9799 36.3975C80.383 36.6166 80.3463 37.0031 79.9318 37.1806C78.7611 37.6818 77.5429 38.0333 76.2457 38.0624C75.8141 38.0724 75.6274 38.209 75.516 38.6282C74.8098 41.2864 73.8252 43.8288 71.685 45.8108C71.237 46.2258 70.7219 46.6183 70.1612 46.8736C69.1019 47.3557 68.178 46.857 67.3161 46.3107C66.9471 46.0799 66.6114 45.8053 66.3175 45.4937C66.0669 45.2236 65.927 45.2497 65.6992 45.4902C65.0424 46.1854 64.3475 46.8439 63.4141 47.2168C62.8509 47.4412 62.3029 47.5772 61.6562 47.3961C60.6854 47.123 59.8071 46.7519 59.1787 45.983C58.9446 45.695 58.7857 45.7247 58.5105 45.9503C57.9935 46.3737 57.4689 46.8083 56.8803 47.1307C55.6774 47.7892 54.5225 47.4163 53.4391 46.8065C52.619 46.3475 52.0393 45.6968 51.9716 44.6512ZM68.121 43.3889C68.1723 43.6044 68.2001 43.9215 68.326 44.1993C68.4349 44.4368 68.6285 44.7705 68.8342 44.8056C69.0297 44.8394 69.3607 44.5859 69.5088 44.3804C70.1857 43.4356 70.8382 42.4754 71.4654 41.5008C72.2963 40.2129 72.7165 38.7927 72.8652 37.3035C72.8877 37.0272 72.8359 36.7499 72.7146 36.4972C72.4121 35.8779 72.1058 35.837 71.7059 36.3957C70.8921 37.5298 70.0859 38.6721 69.3581 39.8573C68.6868 40.9402 68.2653 42.1434 68.121 43.3889ZM50.1156 35.5627C50.1491 35.2207 49.9827 35.115 49.6694 35.1933C49.5783 35.2159 49.4935 35.2771 49.4189 35.3347C47.5337 36.7864 46.077 38.5457 45.1075 40.6499C45.0645 40.7431 45.1221 40.8785 45.1328 40.9943C45.2512 40.9693 45.4043 40.9812 45.484 40.9147C45.9156 40.5579 46.3307 40.185 46.7471 39.8139C48.04 38.6614 49.1936 37.4086 49.9789 35.8886C50.0358 35.7776 50.0751 35.6594 50.1156 35.5627ZM30.2079 33.1568C29.8858 33.1247 29.6523 33.0956 29.4176 33.0796C28.7316 33.0321 28.0393 33.0256 27.3603 32.9335C26.811 32.8587 26.5756 32.5149 26.5756 31.977L26.58 31.6991C26.6085 30.7545 26.9768 30.6132 27.9766 30.7485C29.0037 30.8875 30.0769 30.8465 31.1179 30.7557C32.4873 30.6369 33.8428 30.3715 35.2084 30.2094C36.038 30.1114 36.8765 30.0752 37.7112 30.0348C38.8041 29.9814 39.6799 30.4736 40.4468 31.1202C40.638 31.2805 40.7095 31.6819 40.6639 31.9473C40.5759 32.4657 39.2926 33.0036 38.7737 32.5173C38.3972 32.1652 37.9023 32.0488 37.3581 32.1094C36.3304 32.2246 35.2989 32.3172 34.27 32.4277C34.008 32.4556 33.908 32.5838 33.815 32.8563C33.6378 33.3765 33.3169 33.8562 33.0372 34.3431C31.8298 36.4509 30.761 38.6122 30.1016 40.9313C29.7005 42.3588 29.3244 43.7923 28.9733 45.2313C28.8967 45.5412 28.9119 45.8791 28.9297 46.2015C28.9986 47.4305 28.2829 47.6152 27.2166 47.2904C26.9059 47.1966 26.6161 47.0393 26.3174 46.9104C25.9725 46.7596 25.7447 46.5019 25.7877 46.151C25.889 45.3281 25.9656 44.4933 26.1845 43.6959C26.5749 42.2645 27.0211 40.847 27.5223 39.4464C27.9861 38.1473 28.5386 36.8748 29.0796 35.6001C29.4112 34.8169 29.7928 34.0516 30.2079 33.1568Z" fill="black"/>
<path d="M22.7812 30.8916C22.7811 30.2573 22.5124 29.649 22.0343 29.2005C21.5561 28.752 20.9077 28.5 20.2316 28.5H4.44804C3.77195 28.5 3.12355 28.752 2.64542 29.2005C2.1673 29.649 1.89861 30.2573 1.89844 30.8916V45.7015C1.89861 46.3359 2.16728 46.9443 2.64538 47.3929C3.12349 47.8415 3.77189 48.0936 4.44804 48.0938H20.231C20.9072 48.0938 21.5556 47.8418 22.0339 47.3933C22.5121 46.9449 22.7809 46.3365 22.7812 45.7021V30.8916ZM12.0234 43.3455C12.0234 43.909 10.6857 44.5312 10.0263 44.5312H5.46497C4.80621 44.5312 4.42969 43.909 4.42969 43.3455V31.3173C4.42969 30.7539 4.80621 30.875 5.46497 30.875H10.0263C10.6857 30.875 12.0234 30.7539 12.0234 31.3173V43.3455ZM20.8828 32.9632V38C20.8828 38.6003 20.0715 39.1875 19.4305 39.1875H14.83C14.1889 39.1875 13.9219 38.6003 13.9219 37.9994V31.3482C13.9219 30.7473 14.1889 30.875 14.8306 30.875H19.4311C20.0715 30.875 20.8828 30.7473 20.8828 31.3482V32.9632Z" fill="black"/>
</svg>
