<svg width="72" height="68" viewBox="0 0 72 68" fill="none" xmlns="http://www.w3.org/2000/svg">
<g clip-path="url(#clip0_723_6)">
<path d="M71.8979 33.9158C71.8979 52.6461 55.8203 67.8308 35.9871 67.8308C16.1533 67.8308 0.0759392 52.6461 0.0759392 33.9158C0.0759392 15.1845 16.1539 0 35.9871 0C55.8205 0 71.8979 15.1845 71.8979 33.9158Z" fill="#DD4814"/>
<path d="M11.5687 29.3869C8.91956 29.3869 6.77334 31.4139 6.77334 33.9158C6.77334 36.4164 8.91956 38.4436 11.5687 38.4436C14.2166 38.4436 16.3628 36.4164 16.3628 33.9158C16.3628 31.4139 14.2166 29.3869 11.5687 29.3869ZM45.801 49.967C43.508 51.2181 42.7213 53.9859 44.046 56.1505C45.3693 58.3164 48.2999 59.0588 50.5932 57.808C52.8862 56.5582 53.6726 53.7904 52.3482 51.6242C51.0249 49.4599 48.0926 48.7175 45.801 49.967ZM21.9831 33.9158C21.9831 29.4411 24.3366 25.4875 27.9374 23.0937L24.4322 17.549C20.2376 20.1973 17.1163 24.2438 15.8192 28.9834C17.3329 30.1495 18.3015 31.9252 18.3015 33.9155C18.3015 35.9048 17.3329 37.6805 15.8192 38.8468C17.1146 43.5875 20.2359 47.6345 24.4322 50.2828L27.9374 44.7366C24.3366 42.3441 21.9831 38.3908 21.9831 33.9158ZM35.9871 20.6885C43.3032 20.6885 49.3057 25.9861 49.9357 32.7425L56.7672 32.6474C56.4314 27.6595 54.124 23.1816 50.5792 19.8889C48.7561 20.5394 46.6501 20.4398 44.8304 19.4491C43.0071 18.4553 41.8638 16.779 41.5513 14.9595C39.739 14.4858 37.8672 14.2454 35.9868 14.2449C32.7849 14.2418 29.6258 14.9385 26.7564 16.2804L30.0878 21.9188C31.9355 21.1066 33.9491 20.6867 35.9871 20.6885ZM35.9871 47.1421C33.9492 47.1438 31.9357 46.7238 30.0881 45.9117L26.7567 51.5496C29.6257 52.8929 32.7851 53.5904 35.9873 53.5872C37.8678 53.5868 39.7396 53.3458 41.5516 52.8708C41.8641 51.0513 43.0076 49.3765 44.8304 48.3812C46.6518 47.3886 48.7564 47.2908 50.5792 47.9413C54.1243 44.6486 56.4314 40.1707 56.7678 35.1828L49.9342 35.0877C49.3057 41.846 43.3035 47.1421 35.9871 47.1421ZM45.7993 17.8619C48.0926 19.1125 51.0235 18.3719 52.3465 16.206C53.6712 14.0401 52.8865 11.2721 50.5932 10.021C48.2999 8.77146 45.3693 9.51361 44.0443 11.6795C42.7216 13.8444 43.5077 16.6122 45.7993 17.8619Z" fill="white"/>
</g>
<defs>
<clipPath id="clip0_723_6">
<rect width="72" height="68" fill="white"/>
</clipPath>
</defs>
</svg>
